<?xml version="1.0" encoding="utf-8"?>
<!-- Generator: Adobe Illustrator 16.0.0, SVG Export Plug-In . SVG Version: 6.00 Build 0)  -->
<!DOCTYPE svg PUBLIC "-//W3C//DTD SVG 1.1//EN" "http://www.w3.org/Graphics/SVG/1.1/DTD/svg11.dtd">
<svg version="1.1" id="Layer_1" xmlns="http://www.w3.org/2000/svg" xmlns:xlink="http://www.w3.org/1999/xlink" x="0px" y="0px"
	 width="403.2px" height="345.172px" viewBox="0 0 403.2 345.172" enable-background="new 0 0 403.2 345.172" xml:space="preserve">
<path fill="#BD2331" d="M116.489,145.225c2.22-2.006,4.117-3.893,6.19-5.561c5.331-4.286,10.726-8.49,16.126-12.688
	c1.335-1.038,2.926-1.773,4.156-2.911c3.141-2.908,6.618-5.085,10.886-5.866c0.681-0.124,1.648-0.167,1.958-0.614
	c2.598-3.737,7.336-4.039,10.629-6.799c3.242-2.716,7.271-4.5,10.971-6.665c9.757-5.712,19.9-10.514,30.868-13.494
	c2.47-0.671,4.737-2.072,7.126-3.071c3.206-1.344,6.432-2.643,9.662-3.929c4.089-1.626,8.248-3.093,12.279-4.854
	c11.227-4.902,23.092-7.359,35.059-9.539c4.951-0.902,9.317,1.548,14.025,1.976c0.959,0.087,1.801,1.453,2.695,2.229
	c2.385,3.674,4.57,7.493,7.189,10.99c5.271,7.036,10.34,14.138,13.188,22.591c0.723,2.143,1.879,4.147,2.914,6.176
	c2.021,3.967,4.734,7.715,5.988,11.906c1.494,4.99,1.781,10.344,2.541,15.547c0.617,4.227,1.927,8.534,1.555,12.682
	c-0.533,5.971-2.324,11.829-3.559,17.739c-0.364,1.747-1.346,2.114-3.039,1.812c-1.942-0.346-3.953-0.509-5.918-0.42
	c-0.75,0.035-1.711,0.837-2.133,1.549c-1.061,1.786-1.641,3.886-2.854,5.539c-0.87,1.187-2.602,2.761-3.68,2.579
	c-3.021-0.51-3.158,1.281-3.882,3.256c-1.321,3.598-2.56,7.357-4.655,10.5c-1.838,2.755-3.167,4.851-1.655,8.313
	c2.452,5.616,0.786,10.036-4.103,12.368c-0.559-1.115-1.111-2.221-1.842-3.683c-1.937,1.207-3.609,2.251-5.732,3.575
	c-1.842-0.425-4.337-1-7.091-1.637c-1.389,2.375-1.897,6.538-6.62,5.102c-0.832,1.386-1.617,2.691-2.533,4.215
	c-1.799-1.974-3.285-3.751-5.74-1.545c-0.449,0.404-1.61-0.098-2.316,0.162c-1.077,0.393-2.168,0.949-3.012,1.705
	c-0.528,0.474-0.525,1.49-0.914,2.176c-1.426,2.508-2.582,5.285-4.484,7.37c-1.631,1.786-1.881,6.057-6.094,4.354
	c-1.269,2.539-3.42,1.553-5.219,1.104c-2.885-0.719-5.426-0.938-7.59,1.683c-1.812,2.196-5.074,3.92-5.593,6.31
	c-1.153,5.299-5.077,8.016-8.436,11.302c-1.085,1.061-2.987,1.29-4.521,1.883c-1.104,0.428-2.314,0.664-3.305,1.271
	c-2.545,1.559-5.106,3.135-7.45,4.974c-2,1.569-3.526,1.394-5.482-0.093c-3.186-2.418-10.344-1.75-13.288,0.945
	c-1.978,1.812-3.835,3.836-6.067,5.262c-2.38,1.52-4.638,3.996-8.037,2.688c-2.69,0.927-5.13,0.383-7.381-1.262
	c-0.652-0.609-1.634-1.1-1.903-1.848c-1.41-3.914-4.172-3.073-7.062-2.279c-6.897,1.898-13.643,5.161-21.091,2.5
	c-0.229-0.082-0.563,0.193-0.854,0.21c-3.952,0.201-7.825,0.438-11.689-1.192c-2.402-1.012-5.212-1.056-7.84-1.533
	c-5.405,2.617-8.014-1.72-10.799-4.709c-5.777-6.205-9.384-13.662-11.917-21.767c-2.245-7.183-3.898-14.36-3.538-21.931
	c0.08-1.686-0.213-3.388-0.94-5.105 M114.651,242.707c2.054,4.728,3.318,5.133,7.828,3.398c7.438-2.861,14.844-5.889,22.929-6.577
	c1.451-0.125,2.92-0.629,4.274-1.209c7.313-3.136,14.574-6.398,21.906-9.492c1.234-0.521,2.788-0.238,4.094-0.643
	c3.091-0.957,7.06-1.255,8.975-3.362c3.534-3.889,8.491-3.747,12.454-6.084c1.548-0.912,3.646-1.083,4.924-2.227
	c3.151-2.82,6.539-4.575,10.81-5.222c3.347-0.506,6.598-1.934,9.766-3.253c2.66-1.107,5.098-2.73,7.701-3.984
	c8.474-4.082,17.042-7.92,25.142-12.795c10.999-6.62,22.495-12.357,31.921-21.419c2.824-2.715,4.084-5.146,3.275-8.746
	c-0.871-3.892-1.85-7.759-2.797-11.633c-2.949-12.065-3.912-24.66-9.941-35.918c-1.052-1.966-2.223-2.864-4.15-3.268
	c-2.474-0.202-5.031-0.072-7.407-0.664c-8.566-2.136-16.638-0.219-24.517,2.84c-2.75,1.068-5.217,2.61-7.244,5.274
	c-1.741,2.29-5.093,4.354-7.879,4.562c-2.601,0.194-5.223-0.052-7.768,0.905c-6.136,2.306-12.343,4.432-18.4,6.926
	c-5.045,2.077-9.825,4.807-14.89,6.828c-7.61,3.034-15.623,5.165-22.97,8.707c-5.008,2.414-9.171,6.578-14.054,10.213
	c1.535,1.192,2.421,1.687,3.029,2.413c0.496,0.593,0.869,1.449,0.926,2.215c0.133,1.793,0.042,3.603,0.042,6.086
	c-4.267-2.04-8.238-0.227-12.247,2.175c0.535,4.503-3.896,3.811-6.469,4.97c-2.832,1.277-5.968,1.88-9.525,2.939
	c1.093,0.674,1.643,1.014,2.635,1.623c-1.936,1.715-3.869,3.236-5.546,5.001c-0.762,0.8-1.346,2.051-1.448,3.149
	c-0.732,7.839-2.899,15.25-6.221,22.363c-0.522,1.118-0.362,2.858-1.165,3.491c-3.263,2.581-1.736,5.556-1.051,8.462
	c0.259,1.098,0.782,2.161,1.344,3.148c0.561,0.984,1.869,1.842,1.891,2.779c0.066,2.852,0.084,5.828-0.663,8.542
	C113.421,237.922,113.489,240.273,114.651,242.707z"/>
</svg>
