<?xml version="1.0" encoding="utf-8"?>
<!-- Generator: Adobe Illustrator 16.0.0, SVG Export Plug-In . SVG Version: 6.00 Build 0)  -->
<!DOCTYPE svg PUBLIC "-//W3C//DTD SVG 1.1//EN" "http://www.w3.org/Graphics/SVG/1.1/DTD/svg11.dtd">
<svg version="1.1" id="Layer_1" xmlns="http://www.w3.org/2000/svg" xmlns:xlink="http://www.w3.org/1999/xlink" x="0px" y="0px"
	 width="523.363px" height="500.688px" viewBox="0 0 523.363 500.688" enable-background="new 0 0 523.363 500.688"
	 xml:space="preserve">
<g>
	<path fill="#BD2331" d="M375.343,168.292c0,0,5.181-1.342,5.781-1.342s1.2,0.142,1.8,0.671c0.6,0.529,8.801,0.528,13,1.529
		c4.201,1,4.801,0.399,8.4,1.8s0.6,23.4,0.6,23.4s9.051,3.438,7.525,8.119s-6.125,21.681-7.125,23.082s-3.2,4-6.801,6.4
		c-3.6,2.4-4.656,5.498-5.361,6.506c-0.391,0.548-0.633,0.754-0.706,1.009c-2.007,6.895-6.54,11.062-13.479,12.835
		c-3.435,0.878-6.78,2.101-10.166,3.167c-2.08,0.982-4.199,1.887-6.23,2.961c-4.467,2.364-8.627,5.156-11.836,9.159
		c-3.452,3.759-6.963,7.468-10.317,11.312c-0.931,1.064-1.925,2.514-1.979,3.824c-0.231,5.533,0.074,11.088-0.238,16.613
		c-0.107,1.9-1.25,3.844-2.275,5.557c-0.799,1.334-2.217,2.279-3.241,3.496c-3.878,4.604-9.313,6.555-14.826,6.912
		c-4.866,0.318-8.339,2.571-12.018,5.003c-2.587,1.058-5.263,1.523-7.642,3.513c-4.275,3.576-9.143,6.451-13.813,9.544
		c-1.647,1.089-3.495,1.878-5.138,2.978c-0.525,0.352-0.646,1.279-1.017,1.904c-0.328,0.556-0.66,1.417-1.136,1.529
		c-4.015,0.948-6.439,3.502-7.938,7.218c-0.207,0.51-1.22,0.756-1.904,0.999c-1.846,0.658-3.717,1.25-5.579,1.867
		c-0.173-0.182-0.346-0.364-0.519-0.546c3.323-2.944,6.669-5.865,9.954-8.853c0.869-0.792,1.547-1.794,2.312-2.699
		c0.748-0.688,1.496-1.371,2.244-2.059c1.771-2.023,3.543-4.047,5.312-6.065c4.021-2.837,8.046-5.677,12.07-8.517
		c3.068-2.928,6.631-5.498,9.073-8.877c2.682-3.709,8.097-5.096,8.713-10.443c0.044-0.382,0.491-0.908,0.362-1.09
		c-2.199-3.096-0.063-6.697-1.217-9.886c-0.154-0.423-0.587-0.745-1.004-1.254c-1.52,1.122-2.932,2.163-4.343,3.206
		c-0.719,0.627-1.438,1.254-1.593,1.389c0.486,2.83,0.857,4.995,1.229,7.162c-2.052,1.695-4.104,3.39-6.157,5.087
		c-1.455,0.486-3.053,0.751-4.311,1.548c-0.671,0.426-0.758,1.771-1.108,2.703c0,0-0.061,0.043-0.06,0.043
		c-2.48-0.924-4.998-2.366-7.507-0.236c-1.418,1.205-2.626,2.657-3.929,3.998c0.229-0.047,0.457-0.094,0.688-0.143
		c0,2.174,0,4.348,0,6.521c-0.787,2.078-2.34,3.091-4.449,3.712c-1.199,0.353-2.184,1.438-3.264,2.195
		c-1.031-0.713-2.062-1.426-3.605-2.493c-0.027-0.284-0.142-1.415-0.266-2.663c-0.729,0.037-1.209,0.046-1.688,0.088
		c-4.77,0.404-5.939,2.713-3.525,6.748c0.476,0.795,0.521,1.848,0.764,2.781c-0.662,0.973-1.324,1.945-1.987,2.916
		c-0.904-0.346-1.81-0.689-2.245-0.856c-0.754-1.837-1.159-4.467-2.021-4.628c-2.684-0.498-3.845-1.829-3.999-4.992
		c-2.083,2.248-3.715,4.01-5.348,5.771c0.053,0.227,0.107,0.454,0.16,0.681c1.246-0.159,2.491-0.316,4.238-0.539
		c-1.004,1.772-1.808,3.189-2.589,4.566c3.806,3.922,4.162,4.594,0.558,7.846c-2.657,2.399-4.198-2.008-7.302-2.435
		c-1.165,2.341-2.459,4.94-4.154,8.347c-0.32-1.666-0.216-2.672-0.662-3.082c-0.659-0.607-1.938-1.328-2.551-1.063
		c-3.305,1.424-4.071,4.101-2.347,7.263c2.238,4.107,1.494,7.541-2.32,10.699c-2.045,0.834-4.082,1.328-6.066-0.154
		c-0.25-0.842-0.501-1.685-0.887-2.986c-2.032,0-4.176,0-6.787,0c-0.06-0.088-0.493-0.721-0.977-1.426
		c-3.223,2.387-6.369,4.72-9.604,7.116c0.477,2.134-1.5,5.117-4.036,6.51c-1.807,0.993-3.578,2.302-4.904,3.861
		c-1.832,2.157-3.229,4.683-4.927,7.22c0.254,0.541,0.634,1.35,1.342,2.859c-4.536-1.344-4.917,1.062-4.477,4.051
		c-4.656,0.518-2.158,3.131-1.395,5.674c-1.575-0.5-2.693-0.857-3.901-1.239c-0.77,1.181-1.368,3.272-2.496,3.612
		c-3.517,1.061-7.234,1.459-10.874,2.113c0.097-1.346,0.194-2.692,0.299-4.139c-3.865,2.023-7.313,3.83-11.027,5.773
		c0.179-1.115,0.284-2.867,0.771-4.506c0.446-1.5,1.121-3.006,2.02-4.28c2.423-3.435,5.206-6.501,7.167-10.397
		c1.78-3.536,5.488-6.085,8.275-9.133c2.61-2.854,5.254-5.693,7.607-8.752c0.738-0.959,0.995-2.693,0.737-3.918
		c-0.406-1.922-0.229-3.535,1.457-4.408c1.087-0.562,2.557-0.385,3.854-0.537c0.213,0.365,0.426,0.73,0.64,1.098
		c3.155-3.203,6.024-6.772,9.539-9.514c4.1-3.197,5.632-8.609,10.604-11.098c2.242-1.123,3.683-3.871,5.446-5.917
		c2.536-2.941,6.613-4.56,7.605-8.858c0.068-0.297,1.057-0.735,1.226-0.604c2.671,2.077,3.167-0.754,4.416-1.887
		c0.737-0.666,1.431-1.445,2.287-1.904c3.837-2.048,7.171-4.516,8.137-9.234c-0.68,0.216-1.519,0.483-2.357,0.75
		c-0.125-0.219-0.25-0.438-0.375-0.658c2.656-0.925,2.484-4.974,6.679-5.197c-1.316,1.933-2.288,3.359-3.26,4.785
		c0.291,0.232,0.583,0.467,0.874,0.701c0.77-0.678,1.538-1.357,2.31-2.033c3.203-2.811,6.419-5.605,9.6-8.438
		c0.661-0.589,1.56-1.26,1.687-2.007c0.149-0.87-0.429-1.863-0.691-2.804c-0.395-0.096-0.791-0.193-1.186-0.29
		c3.17-2.777,6.34-5.555,9.624-8.432c3.618,4.092,3.624-1.425,4.795-1.413c0.266-1.657,0.104-3.705,0.728-3.982
		c2.086-0.924,2.874-5.477,6.422-2.5c0.243-0.199,0.685-0.424,0.659-0.564c-0.877-4.957,3.38-6.617,6.014-9.25
		c1.262-1.26,2.813-1.721,3.402,0.744c2.125-1.777,4.104-3.426,6.074-5.086c0.301-0.256,0.734-0.52,0.813-0.85
		c1.553-6.373,7.411-9.141,11.302-13.55c0.511-0.579,1.365-1.016,1.572-1.674c0.758-2.392,1.537-2.484,2.787-0.321
		c0.139,0.237,1.246,0.27,1.5,0.007c0.48-0.5,1.1-1.673,0.91-1.884c-1.713-1.884-0.06-3.107,0.975-3.963
		c2.795-2.315,5.854-4.308,8.758-6.496c2.299-1.733,4.527-3.559,6.771-5.363c0.305-0.245,0.477-0.655,0.777-0.907
		c6.595-5.529,13.227-11.014,19.787-16.584c2.354-1.998,4.714-4.043,6.718-6.372c0.817-0.951,1.2-2.866,0.831-4.045
		c-0.252-0.802-2.125-1.175-3.328-1.567c-0.633-0.206-1.387-0.038-2.085-0.04c-1.681-0.835-3.362-1.67-4.663-2.316
		c-1.328,1.589-2.486,2.975-3.76,4.497c2.498,2.141,0.193,3.768-0.68,5.594c-0.396,0.217-0.793,0.433-1.189,0.649
		c-2.793-1.418-2.812-1.767-0.587-5.357c-1.536,1.177-3.07,2.353-4.681,3.586c-0.788-0.983-1.442-1.799-2.59-3.229
		c-2.658,2.317-5.157,4.494-7.812,6.807c-0.979-0.838-2.431-2.083-3.384-2.9c-2.102,1.173-3.811,1.839-5.148,2.953
		c-1.337,1.112-2.305,2.671-3.434,4.035l0.043-0.021c-0.215-0.006-0.428-0.012-0.643-0.017c-1.01-0.826-1.984-1.702-3.041-2.464
		c-0.971-0.701-2.344-2.037-2.99-1.768c-1.893,0.786-3.513,2.229-5.236,3.42c-0.863,0.596-1.667,1.607-2.584,1.718
		c-1.789,0.216-3.638-0.069-5.46-0.146c-2.595-1.436-3.224-1.303-4.813,1.726c-0.76,1.446-1.58,2.86-2.373,4.289
		c-0.287,0.003-0.574,0.007-0.855,0.009c-2.744-1.244-5.49-2.5-8.252-3.722c-0.768-0.34-1.92-1.071-2.314-0.795
		c-2.65,1.863-5.143,3.949-7.688,5.962c-0.559,0.04-1.117,0.081-1.678,0.121c-1.057-0.699-2.828-2.185-3.057-1.976
		c-2.256,2.056-3.072-0.708-4.699-1.332c-0.174,2.345-0.971,4.002-3.054,4.211c-0.242-0.253-0.483-0.505-0.725-0.758
		c0.688-0.935,1.375-1.868,2.063-2.803c-0.177-0.233-0.354-0.466-0.53-0.699c-2.04,1.164-4.279,2.082-6.078,3.542
		c-3.7,3.003-7.225,5.798-12.52,5.483c-2.813-0.167-5.687,1.161-8.568,1.495c-1.975,0.229-4.013-0.108-6.023-0.151
		c-0.54-0.012-1.219-0.057-1.606,0.226c-3.823,2.788-8.113,5.081-10.428,9.522c-4.054,2.488-7.008,0.63-9.122-2.986
		c-2.401-2.633-4.925-4.873-8.952-4.03c-4.039,0.846-8.135,1.424-12.174,2.271c-4.518,0.947-9.005,2.04-13.494,3.116
		c-2.271,0.544-4.505,1.246-6.778,1.781c-2.468,0.581-5.015,0.877-7.425,1.626c-1.594,0.495-2.772,1.576-4.797,1.617
		c-2.356,0.049-4.679,1.715-7.015,2.679c-0.199-0.023-0.424-0.121-0.592-0.06c-4.536,1.649-7.295-1.266-10.004-4.02
		c-2.682-2.725-5.112-5.626-4.857-9.897c0.051-0.846-0.768-1.743-1.538-3.351c2.992-2.766,6.53-6.18,10.233-9.402
		c2.006-1.745,4.303-3.155,6.454-4.736c1.781-1.309,3.262-3.122,5.958-2.558c0.646,0.136,1.499-1.031,2.335-1.437
		c7.249-3.517,13.417-9.038,21.237-11.484c3.693-1.156,7.51-1.973,11.108-3.364c4.622-1.788,9.183-3.802,13.584-6.077
		c5.724-2.958,10.978-7.086,16.968-9.192c5.9-2.076,10.616-5.916,16.126-8.438c3.849-1.761,7.694-3.533,11.555-5.268
		c4.568-2.053,9.23-3.916,13.693-6.173c2.175-1.099,4.277-2.645,5.915-4.442c4.511-4.95,10.861-7.041,16.086-10.847
		c1.576-1.149,3.059-2.427,4.709-3.747c-1.416-1.816-3.091-3.964-4.641-5.952c-0.338,1.201-0.54,2.572-1.162,3.716
		c-0.184,0.337-1.552,0.03-2.375,0.018c-0.617-1.427-1.236-2.855-2.088-4.824c-0.852,0-2.391,0-3.699,0
		c0.711,1.424,1.231,2.468,1.752,3.513c-0.986,0.658-1.97,1.315-2.949,1.971c-4.666,1.051-6.666-0.696-6.504-5.695
		c-0.172-0.089-0.379-0.285-0.514-0.243c-1.079,0.328-2.145,0.701-3.199,1.054c-0.114,1.015-0.224,1.995-0.333,2.974
		c-0.808,0.657-1.615,1.313-2.419,1.966c-0.829,0.009-2.217,0.316-2.396-0.019c-0.847-1.59-1.363-3.355-1.959-4.96
		c-1.514-0.12-3.057-0.243-4.6-0.366c0.148,0.211,0.297,0.421,0.446,0.633c-1.253,1.078-2.66,3.185-3.728,3.025
		c-2.368-0.353-3.42,1.04-4.846,2.127c-1.595,0.258-3.19,0.516-4.777,0.776c-3.748-0.032-4.927-2.497-5.128-5.619
		c-2.025,0.314-3.823,0.593-5.769,0.896c0.479,1.677,0.901,3.161,1.324,4.644c-0.681,0.545-1.361,1.091-2.04,1.638
		c-0.56-1.385-1.041-2.809-1.714-4.137c-0.316-0.624-0.917-1.22-1.539-1.543c-0.908-0.472-1.947-0.687-3.042-1.048
		c-0.882,0.751-2.052,2.536-3.526,2.838c-2.76,0.564-3.741,1.755-3.06,4.09c-2.916,3.07-4.598,1.128-6.305-1.83
		c-2.525,6.824-7.868,8.373-13.745,9.028c-0.823-0.005-1.646-0.01-2.467-0.015c-2.601-1.141-6.079-0.632-7.537-4.02
		c-0.08-0.183-1.21,0.002-1.818,0.152c-0.738,0.181-1.443,0.495-2.156,0.769c-1.623,0.627-3.243,1.264-4.864,1.897
		c-1.735,0.889-3.376,2.041-5.121,2.227c-6.002,0.637-11.591,2.426-16.935,5.141c-0.412,0.21-0.965,0.129-1.448,0.213
		c-4.724,0.822-9.448,1.651-14.171,2.478c-1.896-0.508-3.902-0.777-5.667-1.576c-3.789-1.715-7.492-3.637-11.149-5.621
		c-1.176-0.638-2.455-1.541-3.078-2.662c-2.081-3.738-4.237-7.507-5.643-11.517c-0.678-1.932-0.389-4.794,0.612-6.595
		c1.857-3.338,4.532-6.229,6.922-9.263c0.977-1.239,1.913-2.664,3.202-3.466c1.613-1.003,3.532-1.895,5.387-2.061
		c7.005-0.622,14.032-1.044,21.06-1.314c4.411-0.17,8.837,0.064,13.256,0.11c0.393,0.004,0.787-0.043,1.179-0.083
		c11.151-1.144,22.302-2.29,33.452-3.434c0.199-0.021,0.411-0.073,0.597-0.03c8.459,1.976,16.806,0.026,25.17-0.806
		c1.802-0.179,3.479-1.405,5.289-1.744c6.522-1.223,13.061-2.387,19.628-3.332c2.615-0.377,5.321-0.15,7.987-0.159
		c5.232-0.016,10.473,0.181,15.694-0.045c8.174-0.355,16.333-1.367,24.501-1.415c11.824-0.069,23.653,0.743,35.478,0.663
		c7.97-0.055,15.936-1.447,23.902-1.421c7.955,0.027,15.914,0.988,23.855,1.73c2.449,0.229,2.824,0.885,2.738,2.458
		c-3.207-0.164-6.413-0.329-9.621-0.493c-0.021,0.285-0.041,0.57-0.062,0.856c2.611,0.292,5.223,0.584,7.833,0.876
		c1.429,0.191,2.856,0.382,4.284,0.572c2.08-0.189,3.903,0.056,4.365,2.592c0.303,0.385,0.607,0.77,0.912,1.154
		c0.323,0.932,0.582,1.891,0.98,2.789c1.671,3.766,1.322,4.44-2.521,4.652c-0.139,0.246-0.339,0.487-0.419,0.764
		c-1.194,4.129-1.646,8.667-6.38,10.758c-0.416,0.184-0.713,1.579-0.469,2.161c1.705,4.062,0.515,8.198,0.496,12.299
		c-0.572,1.262-1.145,2.525-1.987,4.386c-1.274-1.771-2.062-2.864-2.847-3.956c-1.113-2.651-3.588-3.53-5.998-3.989
		c-2.855-0.543-5.164,0.61-5.762,3.791c-0.529,2.818-0.833,5.679-1.346,8.501c-1.666,9.162-1.688,9.159-11.013,9.959
		c-0.941-0.215-1.884-0.432-2.825-0.647c-3.948-1.867-7.865-3.839-12.418-3.643c-1.273-0.362-2.543-0.742-3.822-1.081
		c-1.57-0.417-3.151-0.801-4.727-1.199c-0.832-0.711-1.754-1.339-2.477-2.147c-2.457-2.748-5.273-2.392-8.129-0.935
		c-2.303,1.175-4.41,2.751-6.748,3.84c-4.742,2.21-8.59,6.318-14.629,5.961c-1.665-0.098-4.406,2.62-5.1,4.592
		c-1.563,4.441-2.154,9.225-3.14,13.87c-1.214,4.705-1.216,4.637-5.903,4.767c-2.855,0.08-6.023-0.859-8.137,2.259
		c-0.273,0.403-1.658,0.505-2.209,0.189c-2.48-1.419-4.289-0.212-6.181,1.185c-0.536,0.395-1.323,0.446-1.994,0.654
		c0.13-0.837,0.259-1.675,0.388-2.513c1.311-0.512,2.621-1.023,3.932-1.535c-0.11-0.465-0.22-0.931-0.331-1.396
		c-2.074,0.089-4.31-0.275-6.178,0.391c-1.988,0.709-3.63,2.393-5.423,3.651c-0.96,1.482-1.919,2.963-3.274,5.055
		c1.672,0.145,2.807,0.501,3.823,0.29c9.844-2.043,19.731-3.928,29.475-6.386c6.044-1.524,11.759-4.364,17.807-5.872
		c6.071-1.513,12.378-2.07,18.571-3.104c13.869-2.312,27.721-4.732,41.605-6.949c4.293-0.686,8.662-0.951,13.01-1.234
		c2.764-0.179,4.979-1.774,5.262-4.354 M238.146,321.533c-3.743,0.23-4.041,0.563-4.518,5.926c1.489-1.996,2.98-3.992,4.468-5.988
		c1.697,0.365,4.862-2.649,5.145-5.608C241.27,318.057,239.708,319.795,238.146,321.533z M340.371,265.333
		c-0.494,2.856-0.99,5.714-1.59,9.175c5.139-6.225,10.172-12.324,15.207-18.422c1.51-1.735,3.02-3.469,4.53-5.203
		c-0.198-0.292-0.396-0.583-0.595-0.874c-3.764,1.458-7.707,2.584-11.232,4.487c-2.531,1.363-4.543,3.721-6.682,5.746
		c-0.37,0.352-0.344,1.273-0.274,1.906C339.853,263.219,340.15,264.271,340.371,265.333z M406.598,173.209
		c0.46,0.067,6.92,0.136,7.381,0.204c0.928,0.364,1.855,0.728,2.784,1.09c0.638,2.667,2.664,6.194,1.647,7.834
		c-2.729,4.399-2.312,9.029-3.071,13.631c-0.417,2.523-2.65,4.744-3.078,7.268"/>
	<polygon fill="#BD2331" points="396.924,175.95 406.598,173.209 413.124,202.95 402.924,202.95 392.725,191.75 	"/>
</g>
</svg>
