<?xml version="1.0" encoding="utf-8"?>
<!-- Generator: Adobe Illustrator 16.0.0, SVG Export Plug-In . SVG Version: 6.00 Build 0)  -->
<!DOCTYPE svg PUBLIC "-//W3C//DTD SVG 1.1//EN" "http://www.w3.org/Graphics/SVG/1.1/DTD/svg11.dtd">
<svg version="1.1" id="Layer_1" xmlns="http://www.w3.org/2000/svg" xmlns:xlink="http://www.w3.org/1999/xlink" x="0px" y="0px"
	 width="1871.747px" height="1504px" viewBox="0 0 1871.747 1504" enable-background="new 0 0 1871.747 1504" xml:space="preserve">
<g>
	<path fill="#BD2331" d="M1363.149,300.8c0.375,1.435,0.75,2.87,1.151,4.414c-0.489,0.361-0.908,0.863-1.427,1.009
		c-0.882,0.248-2.172,0.682-2.651,0.278c-0.551-0.462-0.615-1.777-0.507-2.675c0.126-1.035,0.671-2.019,1.034-3.026
		C1361.549,300.8,1362.349,300.8,1363.149,300.8z"/>
	<path fill="#BD2331" d="M982.75,1203.199c-0.776-1.957-1.708-3.951,1.163-5.171c2.461,1.771,0.677,3.476,0.037,5.171
		C983.549,1203.199,983.149,1203.199,982.75,1203.199z"/>
	<path fill="#BD2331" d="M374.349,626.6c4.434,0.35,4.607,0.474,4.683,4.261c-1.844-1.441-3.263-2.551-4.683-3.661
		C374.349,627,374.349,626.8,374.349,626.6z"/>
	<path fill="#BD2331" d="M1166.157,985.242c1.854-1.525,3.729-2.791,5.259-4.389c2.317-2.42,4.396-5.07,7.022-8.146
		c1.188-0.883,3.056-2.262,4.914-3.651c3.395-2.535-1.643-4.378-0.402-7.281c0.938,0.591,1.685,1.265,2.561,1.562
		c0.905,0.305,1.934,0.242,2.908,0.342c-0.087-0.955,0.162-2.175-0.334-2.805c-0.844-1.066-2.138-1.796-3.287-2.602
		c-0.649-0.453-1.391-0.775-2.354-1.3c1.286-0.803,1.692-1.056,2.099-1.312c1.188,2.424,3.784,1.088,5.5,2.062
		c2.33,1.326,2.969,0.991,3.199-1.791c0.074-0.889-0.11-2.338,0.312-2.547c0.823-0.406,1.989-0.118,3.425-0.118
		c0.19-3.597,2.824-5.675,6.461-6.917c1.889-0.645,2.779-1.924,2.451-4.152c-0.545-3.681-0.082-7.081,3.53-9.348
		c0.513-0.323,0.601-1.798,0.425-2.644c-0.302-1.448-0.967-2.819-1.574-4.48c-1.254,0.284-2.483,0.8-3.705,0.784
		c-1.783-0.022-3.559-0.589-5.344-0.629c-2.217-0.047-4.814-0.481-6.58,0.479c-3.387,1.84-6.363,0.319-9.412-0.232
		c-1.771-0.321-3.35-1.717-5.318-2.795c-0.475-2.941-1.047-6.49-1.619-10.027c0.453-1.306,0.796-3.032,1.619-4.486
		c1.279-2.27,2.859-4.372,4.363-6.51c0.68-0.965,1.716-1.74,2.186-2.783c1.502-3.334-0.373-6.258-4.09-6.484
		c-1.75-0.107-3.512-0.018-5.667-0.018c1.847-2.373,2.788-4.965,6.401-4.468c0.992,0.137,3.133-1.654,3.226-2.696
		c0.217-2.426,1.667-3.215,3.407-4.035c4.52-2.127,4.752-4.692,0.694-7.562c0.782-1.42,1.567-2.848,2.484-4.514
		c0.413,0.09,1.062,0.229,1.71,0.372c6.505,1.429,12.143-2.911,12.66-9.745c0.27-3.578,1.632-4.939,5.244-5.136
		c1.359-0.075,2.727-0.013,4.99-0.013c-1.443-1.546-2.172-2.854-3.279-3.403c-2.293-1.138-1.898-3.106-1.746-4.862
		c0.061-0.696,1.184-1.581,1.994-1.84c0.643-0.207,1.971,0.176,2.26,0.701c0.841,1.527,1.719,3.228,1.846,4.914
		c0.284,3.816,2.701,5.482,6.035,7.066c0.671-1.994,1.163-3.801,1.893-5.507c0.545-1.278,1.26-3.321,2.141-3.457
		c2.24-0.345,4.012,1.063,4.48,3.435c0.242,1.229,0.043,2.546,0.043,3.999c-2.305,0.51-6.072-1.457-5.641,3.767
		c1.916-0.257,3.906-0.267,5.686-0.882c0.744-0.257,1.356-1.759,1.482-2.763c0.287-2.262,0.115-4.58,0.387-6.846
		c0.1-0.834,0.971-2.277,1.4-2.245c1.629,0.122,3.287,0.59,4.783,1.263c0.396,0.178,0.52,1.623,0.303,2.35
		c-0.267,0.897-0.967,1.691-1.567,2.461c-1.626,2.08-1.187,4.204,1.198,5.226c1.277,0.546,2.721,0.76,3.904,1.444
		c0.943,0.548,1.987,1.453,2.315,2.426c0.776,2.301,0.938,2.519,3.581,1.742c-2.005-6.271-6.084-12.15-3.494-19.625
		c-1.619,0.95-2.898,1.449-4.411-0.005c-1.04-0.999-3.571-0.923-4.03-1.955c-1.213-2.724-1.723-5.724,0.295-8.587
		c1.293-1.837,2.219-3.931,3.324-5.901c0.628-1.121,1.284-2.228,1.838-3.187c4.641,3.637,4.605,3.973,0.278,7.984
		c0.421,2.084,1.571,2.414,3.155,1.149c1.684-1.346,3.677-2.204,2.739-5.419c-0.604-2.07,0.763-4.715,1.247-7.104
		c0.259-0.049,0.517-0.098,0.774-0.146c0.492,1.092,0.802,2.336,1.538,3.229c0.564,0.688,1.664,0.938,2.525,1.383
		c0.115-0.845,0.494-1.759,0.299-2.526c-0.771-3.057-1.723-6.068-2.707-9.436c1.225-0.062,2.01-0.102,3.238-0.164
		c-0.748-1.454-1.494-2.592-1.936-3.838c-0.673-1.898-0.854-3.436,2.119-3.516c2.125-0.058,4.227-0.945,6.104-1.404
		c1.205-3.848,2.051-7.619,3.594-11.08c0.922-2.07,3.064-3.563,4.406-5.493c0.738-1.063,1.248-2.472,1.336-3.76
		c0.129-1.952-0.771-3.218-3.097-2.87c-0.835,0.123-1.731-0.17-2.872-0.305c2.254-3.021,4.01-5.566,8.037-5.178
		c0.939,0.09,3.027-2.486,3.044-3.854c0.044-3.554,1.008-6.155,3.437-8.932c1.861-2.13,2.438-5.625,2.877-8.616
		c0.135-0.908-1.951-2.407-3.278-3.204c-2.051-1.231-4.409-2.049-3.747-5.145c0.091-0.428,0.51-0.787,0.967-1.454
		c1.043,1.585,1.91,2.769,3.961,1.193c0.654-0.503,2.838,0.981,5.053,1.84c0.363-1.284,0.959-3.039,1.343-4.84
		c0.491-2.315,0.604-4.731,1.298-6.975c0.32-1.035,1.631-1.765,2.492-2.634c0.373,0.157,0.748,0.314,1.121,0.473
		c-0.662,3.405-1.141,6.861-2.052,10.199c-0.647,2.365-2.009,4.488,1.337,5.986c0.953,0.427,1.486,1.793,2.867,3.575
		c1.654-4.145,3.648-7.598,4.305-11.288c0.52-2.922,2.629-4.128,3.983-6.13c0.599-0.884,1.495-1.944,1.409-2.844
		c-0.252-2.64,1.227-3.923,3.041-5.335c0.914-0.71,1.532-2.034,1.877-3.2c0.839-2.841,1.328-5.788,2.234-8.604
		c0.182-0.563,1.581-0.989,2.432-1.013c1.027-0.028,2.107,0.341,3.088,0.73c0.541,0.214,1.133,0.738,1.344,1.266
		c0.861,2.147,1.586,4.351,2.361,6.533c0.373,0.001,0.747,0.003,1.121,0.005c0.385-1.397,1.01-2.78,1.102-4.197
		c0.159-2.433,0.523-4.51,2.762-6.094c1.129-0.798,1.681-2.422,2.467-3.688c2.027-3.263,3.283-3.401,5.795-0.634
		c0.672,0.739,1.338,1.492,2.076,2.162c3.027,2.738,3.037,2.912-0.047,5.938c-1.972-0.807-3.926-1.605-6.5-2.657
		c-1.367,1.475-3.291,3.313-4.873,5.409c-0.425,0.563,0.19,1.912,0.454,3.807c2.812-1.982,4.897-3.553,7.101-4.943
		c0.651-0.411,1.952-0.704,2.375-0.353c0.635,0.527,0.756,1.671,1.095,2.553c-0.671,0.14-1.436,0.124-1.997,0.453
		c-0.996,0.583-2.213,1.189-2.719,2.122c-0.83,1.53-1.313,3.298-1.659,5.023c-0.233,1.16-0.448,2.889,0.179,3.517
		c0.844,0.848,2.506,0.882,4.209,1.38c-0.457-2.092-0.943-3.423-0.969-4.764c-0.014-0.798,0.695-1.611,1.078-2.416
		c0.586,0.554,1.205,1.075,1.74,1.673c0.32,0.358,0.508,0.836,0.887,1.485c1.906-1.801,3.07-1.499,4.686,0.644
		c1.834,2.434,5.078,1.176,6.855-0.041c2.49-1.707,4.021-0.554,5.844,0.479c1.117,0.633,2.107,1.493,3.159,2.254
		c5.769-3.032,10.437-2.189,12.823,2.592c-0.646,0.452-1.293,1.262-2.035,1.363c-4.896,0.668-7.268,3.624-6.643,8.502
		c3.951-0.885,3.951-0.885,5.098,0.201c-1.705,2.04-3.342,4.032-5.016,5.992c-1.607,1.886-2.439,4.232-5.215,5.399
		c-1.579,0.664-2.154,3.719-3.188,5.705c-1.395-0.582-4.907,0.744-5.307,2.168c-0.119,0.425-0.072,1.252,0.156,1.365
		c2.165,1.057,4.316,2.252,6.615,2.875c1.336,0.361,2.385-2.299,1.342-3.566c-1.949-2.371-0.05-7.279,3.68-8.18
		c0.293-0.07,0.914,0.18,0.975,0.395c0.139,0.498,0.212,1.166-0.018,1.585c-0.816,1.482-2.056,2.793-2.58,4.355
		c-0.387,1.148-0.352,2.972,0.337,3.77c0.503,0.583,2.833,0.478,3.542-0.184c1.662-1.553,3.182-1.817,4.41-0.087
		c0.299,0.421-1.296,2.186-2.434,3.986c0.701,3.936,1.469,4.989,3.09,5.029c2.548-2.242,4.492-3.883,6.354-5.613
		c1.721-1.6,3.465-3.198,5.006-4.966c4.302-4.935,5.863-5.252,10.816-1.051c2.318,1.966,4.191,4.259,7.605,2.362
		c0.303-0.167,1.146,0.045,1.32,0.334c1.586,2.613,3.533,1.299,5.516,0.683c3.513-1.091,7.037-2.202,10.629-2.95
		c0.894-0.186,2.07,0.982,3.117,1.529c-0.586,0.779-1.018,1.79-1.784,2.295c-2.571,1.697-5.255,3.224-7.909,4.794
		c-0.82,0.486-1.781,1.412-2.508,1.27c-3.76-0.735-5.23,1.284-5.812,4.88c-0.777-0.692-1.203-1.362-1.771-1.517
		c-0.998-0.272-2.473-0.714-3.066-0.237c-2.771,2.227-5.285,4.774-7.951,7.137c-0.639,0.565-1.475,1.002-2.295,1.255
		c-3.471,1.075-4.145,2.888-2.129,5.973c0.416,0.64,0.844,1.271,1.268,1.906c-0.252,0.253-0.506,0.505-0.758,0.757
		c-1.475-1.582-2.95-3.163-4.711-5.054c-0.677,1.27-1.45,2.096-1.532,2.987c-0.305,3.297-2.577,3.555-5.098,3.682
		c-1.28,0.064-2.695,0.046-3.774,0.601c-0.73,0.376-1.54,1.838-1.347,2.55c0.788,2.91-0.587,5.338-3.63,5.763
		c-1.479,0.206-3.01,0.23-4.428,0.646c-0.919,0.27-1.943,0.939-2.4,1.731c-0.268,0.464,0.361,2.1,0.801,2.19
		c1.079,0.227,2.339,0.038,3.412-0.324c0.65-0.217,1.088-1.067,1.82-0.892c1.826-0.215,3.654-0.412,5.479-0.649
		c1.87-0.244,3.733-0.688,5.605-0.725c0.905-0.019,1.825,0.694,2.717,1.524c-4.032,1.331-6.809,5.389-11.607,4.388
		c-0.607-0.127-1.408,0.673-2.119,1.043c0.718,0.45,1.396,0.995,2.166,1.327c1.033,0.444,2.137,0.723,3.209,1.073
		c0.051,0.387,0.104,0.771,0.154,1.158c-1.814,1.079-3.812,3.27-5.409,3.009c-3.544-0.578-5.329,0.509-6.913,3.468
		c-0.838,1.566-4.776,1.301-6.416,0.375c-1.203-0.681-2.965-1.371-4.1-0.973c-2.663,0.932-6.732,0.209-7.025,4.84
		c-0.012,0.215-2.014,0.305-3.237,0.473c-0.438,2.896-0.95,6.283-1.413,9.343c-1.473-1.009-3.081-2.351-4.906-3.254
		c-0.899-0.446-2.2-0.086-3.319-0.089c0.249,1.072,0.138,2.613,0.813,3.127c1.914,1.461,4.107,2.588,6.277,3.673
		c1.248,0.624,3.301,0.421,2.7,2.661c-0.573,2.143-2.376,1.787-3.958,1.432c-1.104-0.247-2.159-0.711-4.158-1.393
		c0.657,1.541,0.766,2.484,1.293,2.921c2.832,2.342,1.916,5.376,1.717,8.293c-0.006,0.098-0.023,0.262-0.076,0.28
		c-0.686,0.236-1.441,0.754-2.053,0.621c-1.84-0.402-4.211,2.557-5.578-0.887c-0.352-0.883-1.004-1.646-1.185-1.934
		c-1.556,1.66-2.726,3.227-4.231,4.336c-0.514,0.378-1.874-0.398-2.848-0.646c0.371-0.787,0.609-1.686,1.15-2.329
		c0.49-0.583,1.562-0.745,1.909-1.357c0.319-0.565,0.311-1.933-0.06-2.173c-3.404-2.221-7.098-2.449-10.807-0.873
		c-2.262,0.963-2.4,2.443-0.629,4.696c2.119-2.22,2.943,0.24,3.523,1.318c1.297,2.413,2.996,3.883,5.924,3.899
		c0,0.643,0.049,1.127-0.006,1.6c-0.542,4.593-0.548,4.592,4.033,6.018c3.101,0.965,2.779,1.104,1.63,3.99
		c-2.502,6.281-8.351,5.717-13.661,7.418c0.238,0.641,0.299,1.688,0.838,2.08c1.971,1.436,4.021,2.809,6.19,3.91
		c2.462,1.25,5.237,5.082,4.923,7.813c-0.142,1.237-0.78,2.801-1.718,3.421c-0.586,0.387-2.161-0.692-3.278-1.149
		c-0.938-0.386-1.86-0.817-2.786-1.235c-0.838-0.379-2.319-0.682-2.385-1.169c-0.19-1.414,0.533-2.491,2.315-2.157
		c0.471,0.088,0.971,0.013,1.426,0.013c0.111-0.276,0.281-0.548,0.23-0.601c-1.752-1.802-4.486-2.913-4.236-6.107
		c-1.906-0.136-3.948-0.763-5.68-0.279c-1.992,0.556-3.283,0.678-4.123-2.367c-0.936,1.783-1.586,2.725-1.939,3.767
		c-0.578,1.699-1.209,3.234-3.345,3.248c-2.04,0.013-4.052-0.071-4.922-2.457c-0.083-0.226-0.409-0.362-1.489-0.415
		c0.171,1.367-0.16,3.355,0.611,3.982c2.014,1.635,1.945,3.584,2.179,5.773c0.335,3.154,1.163,6.258,1.845,9.693
		c-0.362-0.123-1.182-0.194-1.713-0.623c-1.863-1.503-3.211-1.055-4.931,0.473c-1.333,1.184-3.299,1.651-5.13,2.044
		c-3.447,1.62,1.233,3.474-0.053,5.47c-5.037-1.094-5.789-0.771-11.168,4.844c-0.595-0.881-1.163-1.724-1.637-2.423
		c-1.413,1.276-2.721,2.456-4.59,4.144c0.01,0.023,0.107,1.123,0.705,1.613c5.52,4.52,5.378,5.617-1.352,8.349
		c-0.67-0.58-1.377-1.192-1.598-1.384c-2.437,1.139-4.42,2.3-6.556,3.005c-2.361,0.78-2.206,2.081-1.47,3.913
		c0.338,0.841,0.295,1.836,0.424,2.76c-0.758-0.135-1.611-0.088-2.254-0.436c-1.947-1.049-2.549,0.209-2.363,1.605
		c0.158,1.167,1.213,2.19,1.729,3.342c0.293,0.661,0.629,1.912,0.375,2.09c-0.629,0.443-1.633,0.682-2.395,0.533
		c-1.426-0.277-2.768-1.148-4.184-1.252c-0.773-0.057-1.988,0.79-2.316,1.532c-0.225,0.511,0.56,1.763,1.21,2.286
		c0.82,0.659,2.075,0.762,2.931,1.393c0.625,0.462,1.342,1.477,1.218,2.08c-0.123,0.604-1.185,1.283-1.935,1.438
		c-1.906,0.39-4.713-1.44-5.533,1.234c-0.472,1.545,2.092,4.852,1.385,5.531c-2.373,2.285-4.527-0.224-5.982-1.962
		c-2.079-2.48-3.676-5.365-5.707-8.425c-0.59,2.916-0.737,5.339-3.181,7.457c-2.631,2.279-4.981,1.138-7.89,1.091
		c0.455,2.63,3.404,4.731,1.504,7.183c-1.779-0.269-3.473-0.21-4.873-0.823c-1.535-0.671-2.797-1.962-4.176-2.986
		c-0.526-0.392-1.014-0.863-1.598-1.12c-0.127-0.057-0.887,0.7-0.838,0.994c0.104,0.611,0.463,1.249,0.893,1.713
		c0.387,0.418,1.028,0.592,1.523,0.922c2.75,1.834,4.063,4.384,3.82,7.888c-2.561,0.123-3.732-1.751-5.197-3.299
		c-0.676-0.713-1.752-1.313-2.699-1.405c-0.597-0.059-1.908,1.062-1.827,1.407c0.214,0.925,0.864,1.87,1.593,2.53
		c1.631,1.48,3.578,2.639,5.062,4.238c0.707,0.762,0.646,2.234,0.936,3.385c-0.372,0.232-0.744,0.463-1.115,0.695
		c-3.221-2.321-6.443-4.643-9.852-7.098c-0.908,0.555-1.52,1.447-0.327,3.039c0.756,1.01,1.236,2.297,1.553,3.534
		c0.194,0.758-0.153,1.655-0.258,2.488c-0.905-0.199-2.001-0.147-2.677-0.653c-1.176-0.883-2.096-2.109-3.775-3.068
		c0.221,1.794,0.518,3.583,0.64,5.383c0.149,2.213-0.161,4.504,0.299,6.637c0.548,2.539,1.575,5.005,2.663,7.38
		c0.418,0.915,1.714,1.39,2.35,2.258c0.689,0.94,1.074,2.104,1.592,3.171c-0.945,0.385-1.979,1.208-2.813,1.041
		c-0.993-0.199-1.913-1.15-2.694-1.945c-2.711-2.766-3.042-6.199-3.534-9.938c-0.621-4.729-1.541-4.819-4.383-3.204
		c-0.891,1.384-1.774,2.771-2.678,4.146c-0.103,0.154-0.405,0.197-0.47,0.352c-0.143,0.346-0.397,0.909-0.254,1.07
		c2.1,2.366-1.887,4.986,0.407,7.483c0.894,0.973,1.351,2.665,1.38,4.043c0.055,2.413-0.375,4.838-0.598,7.226
		c-2.965-0.77-3.857-2.908-2.276-5.713c0.304-0.536,0.267-1.498-0.026-2.038c-0.152-0.282-1.312-0.3-1.837-0.052
		c-4.255,2.01-9.11,1.465-13.466-1.617c-4.815,2.635-5.57,5.203-3.544,10.219c0.565,1.402,0.384,3.324-0.064,4.827
		c-0.22,0.737-1.827,1.061-2.807,1.571c-0.312-0.7-0.79-1.375-0.899-2.106c-0.373-2.46-2.467-4.415-4.922-4.412
		c-1.207,2.065,2.856,4.281-0.208,6.423c-0.744-0.44-1.481-0.877-3.112-1.843c0.221,3.36,0.394,6.001,0.639,9.743
		c-1.117-1.04-2.018-1.484-2.211-2.137c-0.445-1.518-0.439-3.164-0.832-4.705c-0.246-0.967-0.879-1.836-1.406-2.885
		c-0.662,0.554-0.859,0.65-0.953,0.809c-0.832,1.413-1.379,3.65-2.537,4.03c-1.174,0.386-2.941-1.081-4.467-1.69
		c-0.287-0.115-0.662-0.017-1.387-0.017c1.606,1.854,3.338,3.229,4.211,5.024c0.979,2.01,1.181,4.399,1.756,6.771
		c-0.857,0-1.738-0.078-2.603,0.016c-2.196,0.236-2.79-0.821-2.675-2.845c0.293-5.14-1.699-6.804-7.081-5.784
		c0.129,1.309,0.513,2.687,0.305,3.968c-0.146,0.892-1.107,1.649-1.705,2.468c-0.542-0.613-1.063-1.244-1.632-1.831
		c-0.432-0.445-1.075-1.259-1.357-1.157c-0.602,0.216-1.404,0.881-1.458,1.427c-0.181,1.837-0.067,3.705-0.067,6.538
		c-1.262-1.958-2.084-3.236-3.117-4.841c-0.445,1.041-0.732,1.745-1.045,2.437c-1.062,2.341-0.773,5.549-5.315,4.852
		c-2.97-0.457-3.753,1.465-3.451,4.576c0.204,2.092,0.038,4.218,0.038,6.938c-1.531-0.76-2.184-0.992-2.734-1.371
		c-2.082-1.432-3.84-2.24-4.065,1.497c-0.022,0.374-1.187,1.097-1.424,0.962c-0.726-0.414-1.646-1.086-1.799-1.804
		c-0.768-3.604-1.3-7.259-1.957-10.89c-0.101-0.555-0.423-1.07-0.647-1.614c-2.984,1.545-3.279,2.999-1.84,9.179
		c-1.172-0.16-2.266-0.555-3.26-0.379c-1.155,0.203-2.239,0.875-3.322,1.408c-0.74,0.364-1.428,0.84-2.137,1.266
		c-0.445-0.81-1.236-1.615-1.242-2.428c-0.008-0.922,0.455-2.125,1.139-2.704c0.846-0.716,2.129-0.917,3.484-2.204
		c-0.867-0.475-1.789-1.426-2.588-1.331c-2.357,0.279-4.545,1.315-4.607,4.097c-0.061,2.663,0.337,5.336,0.524,8.004
		c0.056,0.779,0.081,1.56,0.12,2.339c-0.26,0.171-0.518,0.343-0.776,0.515c-1.743-2.139-3.487-4.277-5.243-6.432
		c-6.225,0.053-5.346,4.166-3.738,8.979c-1.211-0.706-1.729-0.898-2.104-1.244c-1.957-1.803-3.748-2.496-6.164-0.406
		c-2.5,2.162-5.545,1.197-8.436,0.557c-0.806-0.18-1.682-0.046-2.525-0.056c0.033,1.011-0.123,2.081,0.161,3.017
		c0.237,0.786,0.99,1.416,1.507,2.102c-2.617,0.551-4.834,1.018-7.334,1.544c-0.416-0.903-0.783-2.191-1.545-3.173
		c-0.439-0.562-1.52-0.627-2.312-0.916c-0.118,0.901-0.666,2.284-0.285,2.623c2.236,1.99,2.174,3.61-0.375,5.117
		c-2.725,1.611-3.076,4.304-2.895,7.263c-0.398,0.014-0.795,0.026-1.193,0.04c-0.564-2.074-1.156-4.141-1.675-6.227
		c-0.141-0.569,0.087-1.246-0.106-1.783c-0.418-1.163-1-2.268-1.514-3.395c-0.58,0.729-1.066,1.566-1.762,2.164
		c-1.546,1.333-3.028,3.111-4.85,3.647c-1.765,0.519-3.921-0.289-6.141-0.54c-3.33,5.312-4.387,4.463-9.035-1.818
		c-1.506,3.025-1.05,7.951-6.949,6.885c0.25,0.727,0.315,1.418,0.676,1.878c1.418,1.805,1.504,3.454,0.104,5.392
		c-0.512,0.708-0.412,2.011-0.281,3.002c0.281,2.132-0.598,3.352-2.656,3.354c-0.621,0-1.733-1.066-1.769-1.693
		c-0.087-1.502,0.333-3.032,0.548-4.551c-0.371-0.112-0.744-0.224-1.115-0.336c-0.921,2.574-1.841,5.148-2.629,7.351
		c-3.611-2.97-7.041-5.788-10.941-8.995c0.057-0.401,0.225-1.623,0.396-2.865c-2.051-0.762-2.905,0.337-2.887,1.898
		c0.022,1.752,0.639,3.488,0.824,5.25c0.207,1.993,0.223,4.006,0.322,6.01c-0.248,0.031-0.498,0.062-0.746,0.092
		c-0.84-0.924-1.523-2.154-2.563-2.679c-0.907-0.458-2.546-0.575-3.281-0.043c-1.778,1.286-2.736,1.187-3.586-0.866
		c-0.196-0.479-1.002-0.707-2.027-1.375c0.358,2.467,0.628,4.32,1.03,7.086c-4.33-3.039-5.561-0.377-6.709,2.361
		c-1.461,3.481-2.012,3.65-4.908,1.428c-0.389-0.298-0.857-0.49-1.375-0.778c-0.775,1.055-1.4,2.186-2.297,3.026
		c-0.574,0.537-1.55,0.646-2.344,0.947c-0.231-0.799-0.738-1.637-0.635-2.389c0.197-1.453,0.688-2.875,1.146-4.28
		c0.938-2.866,0.373-3.608-2.492-4.56c-1.371-0.457-2.452-1.781-3.811-2.824c-2.084,4.32-4.695,8.601-6.225,13.236
		c-1.455,4.404-3.76,7.229-7.498,6.869c-2.104-4.823,4.947-6.029,4.236-11.322c-2.926,1.525-5.449,2.73-7.863,4.126
		c-3.341,1.931-0.939,5.294-1.929,8.563c-1.896-2.761-5.823,0.63-7.221-3.241c2.773-2.722,2.836-3.044,0.887-6.508
		c-1.043,0.899-2.054,1.681-2.959,2.569c-1.594,1.564-2.992,1.891-4.163-0.422c-0.224-0.442-0.546-0.852-0.687-1.317
		c-0.445-1.471-0.825-2.962-1.231-4.444c1.404-0.19,2.808-0.383,4.847-0.662c-0.181-1.178-0.314-2.643-0.646-4.062
		c-0.433-1.853-0.59-3.481,1.272-4.77c0.963-0.666,1.723-1.66,2.485-2.58c2.739-3.309,6.028-3.371,8.923-0.116
		c0.92,1.034,1.812,2.092,3.08,3.559c1.594-3.278,3.051-6.277,4.836-9.949c2.174,1.592,4.49,3.242,6.758,4.961
		c2.174,1.65,4.318,3.348,7.312,2.348c0.633-0.212,1.602-0.522,1.729-0.979c0.895-3.228,3.602-3.329,6.137-3.824
		c1.064-0.207,2.09-0.625,3.156-0.812c0.785-0.139,1.787-0.375,2.385-0.03c3.114,1.796,4.758,1.103,6.367-2.044
		c0.611-1.192,2.623-2.41,3.945-2.357c3.771,0.148,6.236-0.821,8.428-4.264c1.158-1.82,4.506-2.521,7.01-3.117
		c1.707-0.404,2.624-0.662,3.392-2.514c0.75-1.809,2.695-3.123,4.188-4.732c-0.496-0.344-1.295-0.898-1.938-1.344
		c1.042-3.938,2.049-7.742,3.043-11.502c5.506-0.395,9.158,2.889,9.426,8.336c0.195,3.973,0.6,4.124,4.44,2.909
		c1.307-0.413,2.899-0.02,4.348,0.136c2.323,0.25,4.31,0.281,6.196-1.785c2.061-2.257,4.734-3.976,7.254-5.771
		c0.484-0.346,1.51,0.172,2.247,0.055c2.684-0.427,6.141-0.076,7.86-1.624c3.711-3.339,8.113-4.444,12.488-6.006
		c1.141-0.408,2.025-1.544,3.018-2.356c0.505-0.414,0.944-1.162,1.486-1.239c5.766-0.821,10.27-4.374,15.316-6.78
		c4.72-2.25,9.617-4.432,15.121-4.213c0.878,0.036,2.475-0.336,2.555-0.748c0.582-3.029,3.098-2.735,5.131-3.306
		c2.783-0.78,5.568-1.554,8.338-2.381c0.639-0.191,1.478-0.435,1.776-0.925c2.062-3.396,5.829-4.335,8.849-6.346
		c2.885-1.919,5.636-4.047,8.562-5.899c1.404-0.888,3.035-1.739,4.639-1.923c2.932-0.333,4.627-1.616,5.393-4.478
		c0.164-0.622,1.332-1.071,2.115-1.419c3.838-1.696,7.732-3.264,11.514-5.072c0.489-0.235,0.482-1.595,0.623-2.447
		c0.101-0.617-0.129-1.7,0.125-1.812c1.25-0.553,2.604-0.895,3.939-1.223C1164.264,985.506,1165.321,985.386,1166.157,985.242z"/>
	<path fill="#BD2331" d="M912.975,1085.254c-2.088,1.931-3.639,3.613-5.444,4.953c-1.364,1.013-3.061,2.209-4.596,2.191
		c-1.787-0.022-2.463,0.615-3.525,1.779c-1.112,1.221-2.829,1.963-4.406,2.605c-0.246,0.1-1.834-1.733-1.646-2.175
		c0.72-1.673,1.915-3.142,2.933-4.687c0.585-0.889,1.173-1.776,1.69-2.561c-1.97-1.313-3.455-2.304-5.138-3.426
		c-0.465,1.52-0.962,3.143-1.43,4.673c-2.224-3.189-4.313-5.999-6.193-8.942c-1.681-2.632-1.195-3.887,1.799-4.839
		c2.252-0.716,2.27-1.683,0.984-3.449c-1.923-2.644-0.944-4.755,2.432-4.896c2.651-0.111,5.367,0.251,7.985,0.761
		c2.092,0.406,3.103,1.927,2.885,4.224c-0.113,1.202,0.168,2.44,0.242,3.302c2.295,0,4.081-0.227,5.783,0.055
		c2.364,0.389,3.584,1.951,3.448,4.465c-0.112,2.076,0.983,3.232,3.403,4.021c0-1.354,0.033-2.286-0.005-3.215
		c-0.197-4.907,2.479-7.122,7.227-5.866c1.52,0.401,2.486,0.306,2.777-1.521c0.219-1.367,0.375-2.927,1.138-3.982
		c0.887-1.228,2.443-2.799,3.639-2.742c1.18,0.055,2.873,1.77,3.287,3.088c1.071,3.412-1.407,6.779-5.024,7.531
		c-0.582,0.122-1.376,0.151-1.679,0.533c-1.806,2.281-3.377,4.773-6.475,5.585c-0.174,0.046-0.108,1.045-0.138,1.602
		c-0.068,1.274,0.267,2.769-0.292,3.764c-0.642,1.142-2.071,1.841-3.159,2.731c-0.633-1.002-1.346-1.963-1.87-3.02
		C913.274,1087.13,913.227,1086.323,912.975,1085.254z"/>
	<path fill="#BD2331" d="M829.233,1011.254c-2.403-1.452-3.242-4.512-1.647-6.303c1.226-1.377,1.169-2.107-0.021-3.471
		c-0.511-0.583-0.288-2.803,0.308-3.187c2.89-1.868,2.13-4.742,1.702-6.995c-0.296-1.557-2.212-3.312-3.817-3.969
		c-1.541-0.631-2.084-1.156-1.94-2.668c0.065-0.689,0.229-1.497-0.038-2.072c-1.687-3.641,0.877-4.953,3.342-6.371
		c1.707-0.982,3.402-1.985,5.083-3.009c1.719-1.046,5.854,1.53,6.392,4.233c0.26,1.307,0.327,2.973-0.266,4.075
		c-2.494,4.638-1.732,8.954,0.752,13.22c1.939,3.332,0.743,6.362-0.947,9.268c-0.375,0.645-1.586,1.409-2.149,1.24
		c-3.675-1.102-4.592,1.561-5.772,3.939C829.908,1009.801,829.625,1010.426,829.233,1011.254z"/>
	<path fill="#BD2331" d="M842.162,928.022c0.585,2.411-0.316,3.751-2.203,5.091c-1.791,1.271-2.951,3.404-4.536,5.013
		c-0.709,0.719-1.745,1.16-2.694,1.593c-3.515,1.602-5.518,0.382-6.231-3.354c-0.095-0.497-0.683-1.039-1.179-1.297
		c-2.827-1.469-3.089-3.652-2.346-6.506c0.269-1.033-0.835-2.355-0.902-3.568c-0.046-0.848,0.355-2.092,0.991-2.537
		c2.07-1.446,4.438-2.466,6.511-3.909c3.387-2.357,6.394-1.926,8.932,1.362C840.423,922.4,843.007,924.53,842.162,928.022z"/>
	<path fill="#BD2331" d="M1350.727,721.284c1.311-1.255,2.557-2.587,3.959-3.729c0.621-0.506,1.578-0.875,2.34-0.81
		c0.352,0.03,0.641,1.241,0.883,1.943c0.311,0.897,0.441,1.869,0.831,2.726c1.243,2.736,0.569,4.892-2.044,6.235
		c-2.084,1.07-4.715,0.04-6.064-2.108c-0.83-1.321-2.033-2.409-3.068-3.601c-0.234,0.141-0.469,0.282-0.705,0.424
		c0.15,1.062,0.488,2.141,0.389,3.179c-0.076,0.786-0.539,1.823-1.154,2.167c-0.416,0.233-1.491-0.423-2.102-0.9
		c-0.761-0.593-1.395-1.372-1.992-2.142c-1.051-1.359-1.033-2.498,0.725-3.335c0.666-0.318,1.424-0.822,1.736-1.444
		c1.545-3.079,2.605-6.465,4.539-9.26c1.207-1.748,3.51-3.019,5.586-3.815c2.509-0.963,5.297-1.197,7.896-1.733
		c1.861,3.743,1.723,4.991-1.883,5.513c-4.588,0.665-6.634,4.314-9.723,6.714c-0.743,0.578-0.736,2.12-1.074,3.219
		C1350.11,720.779,1350.418,721.032,1350.727,721.284z"/>
	<path fill="#BD2331" d="M1421.661,751.085c4.02-0.963,7.846-1.841,11.646-2.822c0.836-0.215,1.572-0.803,2.363-1.202
		c0.662-0.334,1.312-0.774,2.013-0.884c0.211-0.033,0.927,1.138,0.794,1.331c-0.443,0.643-1.163,1.097-1.787,1.613
		c-0.149,0.125-0.334,0.206-0.504,0.308c-0.806,5.294-6.445,9.957-11.975,10.035c-2.658,0.037-4.977,0.788-5.396,4.19
		c-1.095-0.319-1.915-0.694-2.766-0.782c-2.502-0.262-5.016-0.414-7.525-0.6c-0.642-0.048-1.285-0.059-1.928-0.086
		c0.084-0.725,0.041-1.492,0.277-2.163c0.584-1.663,0.934-3.609,2.049-4.831c1.362-1.492,3.41-2.363,5.774-3.899
		c-0.267,2.37-0.437,3.875-0.601,5.351C1418.676,757.805,1420.866,756.148,1421.661,751.085z"/>
	<path fill="#BD2331" d="M967.694,1144.665c-0.261,2.218-0.434,4.8-0.914,7.323c-0.277,1.452-0.545,3.44-3.076,2.062
		c-0.453-0.247-1.948,0.388-2.186,0.946c-1.462,3.443-3.923,1.43-5.789,0.971c-2.361-0.582-2.189-2.721-1.828-4.695
		c0.7-3.829,1.393-7.659,2.041-11.496c0.338-1.999,2.91-3.754,4.879-3.246C965.657,1137.777,967.714,1140.109,967.694,1144.665z"/>
	<path fill="#BD2331" d="M892.989,680.671c1.479-3.125,2.875-6.047,4.231-8.988c0.142-0.31,0.214-0.876,0.039-1.074
		c-3.145-3.545,0.569-5.541,1.864-8.002c0.803-1.526,1.298-3.457,4.01-3.062c3.18,0.462,7.893,5.174,7.151,8.312
		c-0.692,2.933,0.113,6.884-4.073,8.137c-0.845,0.254-1.81,0.704-2.58,0.509c-2.807-0.71-4.206,0.813-5.517,2.9
		C896.817,681.472,895.031,681.953,892.989,680.671z"/>
	<path fill="#BD2331" d="M1434.607,731.368c5.124,1.623,8.282-0.02,12.019-5.904c0.638-1.004,2-1.763,3.187-2.16
		c2.784-0.932,5.648-1.655,8.517-2.305c1.644-0.373,3.357-0.437,5.555-0.701c-0.363,1.459-0.42,2.149-0.699,2.735
		c-1.305,2.744-9.885,7.107-12.842,6.58c-2.916-0.52-4.867,0.966-4.937,3.76c-0.076,3.095-3.542,6.396-6.604,6.086
		C1430.602,738.626,1430.523,738.412,1434.607,731.368z"/>
	<path fill="#BD2331" d="M869.321,845.508c-0.199,5.212-5.465,10.861-10.151,11.287c-2.055,0.188-3.427-0.7-2.811-2.979
		c0.483-1.783,0.505-2.928-1.275-4.212c-2.062-1.487-1.356-3.303,0.917-4.29c1.146-0.499,2.183-1.709,2.797-2.85
		c0.774-1.439,1.217-3.226,3.245-2.817c2.165,0.435,4.938-0.188,6,2.772C868.476,843.623,869.02,844.786,869.321,845.508z"/>
	<path fill="#BD2331" d="M870.872,1068.938c-0.608-1.607-1.2-3.055-1.705-4.53c-1.399-4.087,1.637-8.167,5.966-8.054
		c2.938,0.076,5.972,4.656,4.888,7.393c-0.179,0.453-0.459,0.867-0.638,1.321c-1.809,4.605-1.806,4.606-6.599,5.838
		c0.044,0.915,0.168,1.878,0.114,2.832c-0.052,0.925-0.287,1.838-0.392,2.467c-1.911-0.106-3.507,0.076-4.9-0.372
		c-0.916-0.296-2.065-1.445-2.159-2.313c-0.112-1.043,0.512-2.521,1.326-3.212C867.669,1069.549,869.141,1069.471,870.872,1068.938z
		"/>
	<path fill="#BD2331" d="M857.779,1058.436c-2.079-5.591,0.519-8.915,6.127-10.535c0.835-0.241,1.514-1.102,2.344-1.259
		c1.614-0.308,4.155-1.039,4.757-0.31c1.489,1.799,2.946,4.371,1.237,6.784c-0.849,1.196-2.754,1.587-3.984,2.586
		c-1.928,1.566-3.867,3.188-5.461,5.074c-1.129,1.339-5.668,2.818-6.97,1.631c-0.542-0.493-1.056-1.802-0.783-2.229
		C855.51,1059.451,856.606,1059.129,857.779,1058.436z"/>
	<path fill="#BD2331" d="M897.172,699.974c-0.506,0.678-1.017,1.362-1.757,2.354c-1.371-3.453-3.041-6.502-3.751-9.761
		c-0.788-3.617,2.567-4.631,5.041-5.953c2.053-1.098,3.296-0.369,5.027,1.289c3.058,2.93,3.354,5.623,1.527,9.223
		C901.754,700.087,900.426,700.943,897.172,699.974z"/>
	<path fill="#BD2331" d="M856.723,871.705c0.177-1.109,0.312-1.965,0.508-3.188c-1.239,0.384-2.348,1.062-3.377,0.959
		c-1.234-0.125-3.12-0.654-3.425-1.485c-0.437-1.189-0.044-3.044,0.695-4.144c0.34-0.506,2.387-0.061,3.581,0.253
		c1.347,0.354,2.605,1.046,3.866,1.575c0.329-0.623,0.435-0.788,0.507-0.967c0.545-1.356,1.071-3.858,1.628-3.864
		c1.82-0.021,4.044-0.461,5.416,1.679c0.592,0.922,1.643,1.628,2.615,2.215c2.233,1.346,2.346,2.958,0.115,4.46
		c-2.039,1.373-3.937,2.815-6.834,1.833C860.608,870.554,858.751,871.4,856.723,871.705z"/>
	<path fill="#BD2331" d="M1459.606,734.799c-0.6-1.65-0.592-2.503,0.987-3.997c2.537-2.399,4.864-4.856,8.276-5.886
		c2.619-0.789,4.049,1.075,5.219,2.862c1.024,1.564,0.251,2.625-1.185,3.962c-2.612,2.433-5.537,2.868-8.784,2.854
		C1462.741,734.587,1461.358,734.714,1459.606,734.799z"/>
	<path fill="#BD2331" d="M845.59,903.711c-1.003-1.168-1.817-2.129-2.643-3.08c-2.106-2.427-1.608-5.39,1.337-7.924
		c2.07-1.779,6.575-1.84,7.812,0.201c0.664,1.097,0.913,2.993,0.427,4.135C851.197,900.146,849.36,903.018,845.59,903.711z"/>
	<path fill="#BD2331" d="M1299.524,929.348c-2.331-2.676-5.94-3.464-5.488-7.749c0.367-3.487,2.721-9.722,5.514-12.188
		c4.021,2.547,4.232,6.715,0.252,9.205c-1.712,1.071-1.832,1.781-0.539,3.138C1301.391,923.984,1300.858,926.377,1299.524,929.348z"
		/>
	<path fill="#BD2331" d="M1371.695,932.801c7.61-0.37,12.522,5.412,19.075,7.455c-0.094,0.424-0.188,0.847-0.278,1.27
		c-0.968,0.092-1.954,0.35-2.899,0.244c-3.76-0.42-7.506-0.949-11.256-1.443C1373.008,939.888,1370.52,935.852,1371.695,932.801z"/>
	<path fill="#BD2331" d="M1404.788,648.182c-0.484-0.99-1.44-2.058-1.297-2.945c0.113-0.7,1.526-1.51,2.469-1.683
		c1.746-0.32,3.6-0.042,5.354-0.338c1.262-0.213,2.412-1.017,3.652-1.439c0.786-0.269,1.738-0.604,2.444-0.376
		c0.475,0.154,0.806,1.212,0.926,1.913c0.313,1.816,0.472,3.658,0.688,5.452c-2.314,0.451-4.354,0.987-6.424,1.161
		c-0.566,0.047-1.354-0.9-1.8-1.554c-0.38-0.557-0.368-1.913-0.609-1.933c-0.829-0.067-1.69,0.297-2.642,0.521
		c0.504,1.411,0.863,2.417,1.371,3.835c-0.892,0.26-2.232,0.793-2.309,0.651c-0.572-1.074-0.897-2.28-1.299-3.445
		C1405.137,648.061,1404.961,648.121,1404.788,648.182z"/>
	<path fill="#BD2331" d="M987.047,1180.889c-1.383-0.256-2.774-0.459-1.33-2.363c0.285-0.378,0.68-0.902,0.609-1.283
		c-0.721-3.986,3.377-5.263,4.613-8.167c0.355-0.834,2.236-1.875,2.793-1.591c1.21,0.615,2.65,1.928,2.832,3.131
		c0.238,1.59-0.119,3.841-1.148,4.928c-1.938,2.045-4.525,3.482-6.887,5.109C988.167,1180.902,987.571,1180.815,987.047,1180.889z"
		/>
	<path fill="#BD2331" d="M846.512,1031.429c-2.293-0.596-4.155-2.976-3.361-5.575c0.756-2.479,1.747-5.258,4.788-6.25
		c2.724-0.887,4.796,0.557,4.614,3.469c-0.117,1.87-0.013,4.129-1.011,5.467C850.482,1029.963,848.239,1030.503,846.512,1031.429z"
		/>
	<path fill="#BD2331" d="M881.618,996.237c0.004-2.338,2.82-5.565,4.855-5.563c2.814,0.001,5.137,2.18,5.091,4.772
		c-0.044,2.471-3.116,6.212-5.155,6.277C884.36,1001.789,881.614,998.646,881.618,996.237z"/>
	<path fill="#BD2331" d="M931.974,1054.141c-4.727,0.933-5.256,0.713-9.264-3.857c1.791-2.123,3.506-4.391,5.515-6.359
		c0.457-0.445,2.607-0.154,2.827,0.326c0.864,1.885,1.48,3.952,1.762,6.01C932.973,1051.438,932.309,1052.727,931.974,1054.141z"/>
	<path fill="#BD2331" d="M969.022,1111.596c-2.303,2.108-3.751,3.962-5.646,4.984c-1.252,0.675-2.801,0.447-3.176,2.424
		c-0.133,0.699-1.176,1.301-1.914,1.774c-0.307,0.196-1.031,0.099-1.328-0.149c-0.279-0.234-0.464-0.936-0.318-1.27
		c1.486-3.405,3.101-6.755,4.562-10.169c0.604-1.411,1.387-2.655,2.943-1.758C965.694,1108.326,966.93,1109.766,969.022,1111.596z"
		/>
	<path fill="#BD2331" d="M1324.82,866.411c2.522-0.163,5.315-0.56,8.077-0.402c0.885,0.05,2.159,1.456,2.379,2.438
		c0.19,0.854-0.693,2.711-1.383,2.863c-2.734,0.607-5.707,1.359-8.346,0.831C1323.043,871.641,1323.126,869.111,1324.82,866.411z"/>
	<path fill="#BD2331" d="M683.409,1030.076c1.354-0.284,2.713-0.842,4.029-0.755c0.955,0.062,2.254,0.751,2.706,1.551
		c1.412,2.505-1.66,7.995-4.499,8.374c-2.134,0.284-2.648-0.6-2.308-2.713C683.667,1034.486,683.409,1032.342,683.409,1030.076z"/>
	<path fill="#BD2331" d="M719.725,950.25c1.818-0.662,3.224-1.527,4.667-1.599c1.339-0.065,3.261,0.313,3.948,1.229
		c0.888,1.184,1.224,3.176,0.941,4.658c-0.119,0.629-2.477,1.333-3.701,1.162C721.262,955.104,719.761,953.42,719.725,950.25z"/>
	<path fill="#BD2331" d="M849.271,964.488c2.08-0.025,3.733,3.604,2.478,5.638c-0.565,0.913-1.37,1.718-2.191,2.425
		c-0.945,0.814-1.385,3.094-3.394,1.32c-1.794-1.582-2.167-4.338-0.947-5.98c1.073-1.445,1.908-3.067,2.848-4.611
		C848.466,963.683,848.869,964.084,849.271,964.488z"/>
	<path fill="#BD2331" d="M1389.191,975.455c-0.298,0.518-0.653,1.134-1.075,1.864c-0.445-0.359-0.801-0.497-0.85-0.707
		c-0.479-2.089-1.063-3.845-3.498-4.747c-0.857-0.318-0.986-2.598-1.447-3.982c1.314,0.206,2.856,0.047,3.894,0.695
		c1.901,1.188,3.636,2.729,5.171,4.373c0.65,0.695,0.621,2.025,0.899,3.066C1391.336,975.846,1390.387,975.673,1389.191,975.455z"/>
	<path fill="#BD2331" d="M1294.889,978.12c3.674,1.435,7.012,2.526,8.504,6.416c0.482,1.256,2.08,2.063,3.104,3.136
		c0.771,0.808,1.441,1.711,2.407,2.875C1304.657,990.072,1295.514,981.928,1294.889,978.12z"/>
	<path fill="#BD2331" d="M638.025,978.854c1.705,2.32,0.613,4.437-0.883,5.393c-3.002,1.922-5.584,5.513-10.493,3.211
		c1.895-1.398,3.803-2.781,5.682-4.201C634.171,981.863,635.984,980.434,638.025,978.854z"/>
	<path fill="#BD2331" d="M1355.846,913.881c2.17,1.699,4.23,3.223,6.151,4.904c0.364,0.32,0.438,1.435,0.163,1.881
		c-0.23,0.369-1.183,0.426-1.801,0.391c-2.479-0.139-4.983-0.361-6.668-2.521c-0.554-0.709-1.371-2.004-1.113-2.393
		C1353.143,915.299,1354.322,914.867,1355.846,913.881z"/>
	<path fill="#BD2331" d="M1335.085,851.918c0.146-4.453,3.425-7.43,7.104-6.67c0.885,0.184,1.734,1.746,2.076,2.838
		c0.168,0.542-0.717,1.928-1.364,2.118C1340.395,850.944,1337.792,851.355,1335.085,851.918z"/>
	<path fill="#BD2331" d="M940.139,1107.627c4.215,2.491,4.914,3.794,3.527,7.351c-0.389,0.999-2.513,2.387-2.797,2.177
		c-1.23-0.904-2.912-2.364-2.868-3.566C938.072,1111.6,939.346,1109.655,940.139,1107.627z"/>
	<path fill="#BD2331" d="M1397.602,786.739c-1.297,1.018-1.934,1.562-2.613,2.044c-1.477,1.049-2.936,2.136-4.486,3.064
		c-0.688,0.412-1.903,0.917-2.318,0.612c-0.881-0.644-1.604-1.72-1.958-2.765c-0.146-0.43,0.694-1.555,1.315-1.815
		c2.266-0.952,4.597-1.808,6.979-2.396C1395.229,785.31,1396.186,786.129,1397.602,786.739z"/>
	<path fill="#BD2331" d="M1005.856,600.342c-1.608-0.513-4.436,0.226-3.936-3.189c0.258-1.762-0.066-4.068,2.736-4.123
		c1.887-0.037,4.441,2.95,4.324,4.906C1008.862,599.91,1008.233,600.429,1005.856,600.342z"/>
	<path fill="#BD2331" d="M1351.227,877.229c1.155-0.572,2.131-1.369,3.193-1.513c1.855-0.251,3.781,0.051,5.646-0.153
		c2.646-0.289,3.445,0.798,2.846,3.343C1359.114,879.016,1355.069,881.621,1351.227,877.229z"/>
	<path fill="#BD2331" d="M1375.008,758.562c-0.217-1.396-0.453-2.791-0.648-4.191c-0.189-1.349,2.492-2.865,3.975-2.262
		c1.49,0.608,2.384,3.567,1.539,4.956c-0.509,0.837-0.732,1.943-1.42,2.548c-0.723,0.638-1.84,1.076-2.795,1.089
		c-0.443,0.006-0.904-1.197-1.357-1.854C1374.537,758.754,1374.772,758.658,1375.008,758.562z"/>
	<path fill="#BD2331" d="M877.157,949.274c-0.643,0.621-1.69,2.415-3.134,2.829c-1.849,0.531-3.007-0.949-3.063-3.046
		c-0.076-2.892,1.283-4.995,3.449-5.104C876.199,943.863,877.016,945.111,877.157,949.274z"/>
	<path fill="#BD2331" d="M1419.25,673.252c-0.395-2.94-0.027-4.978,2.725-5.608c2.281-0.521,5.914,1.457,6.664,4.207
		C1425.537,672.313,1422.528,672.762,1419.25,673.252z"/>
	<path fill="#BD2331" d="M860.754,919.828c-1.388,0.981-2.699,2.551-4.192,2.752c-1.109,0.148-4.08-0.082-3.378-2.486
		c0.489-1.676,2.216-3.355,3.826-4.163c0.663-0.333,2.471,1.62,3.758,2.533C860.763,918.919,860.759,919.373,860.754,919.828z"/>
	<path fill="#BD2331" d="M1400.353,746.945c-0.901,2.903-6.363,5.354-8.401,3.584c-0.678-0.588-0.699-3.315-0.124-3.692
		c1.541-1.009,3.339-2.692,5.561-0.82C1398.065,746.589,1399.206,746.609,1400.353,746.945z"/>
	<path fill="#BD2331" d="M824.478,1084.456c-1.225-0.854-3.125-1.478-3.513-2.616c-0.574-1.682,2.67-4.074,5.152-3.713
		c1.013,0.148,2.666,1.613,2.602,2.354C828.541,1082.487,827.583,1084.406,824.478,1084.456z"/>
	<path fill="#BD2331" d="M794.833,915.749c-0.74,3.08-3.182,3.765-5.739,3.476c-2.057-0.232-2.791-2-2.484-4.055
		C791.699,913.052,792.719,913.123,794.833,915.749z"/>
	<path fill="#BD2331" d="M1425.526,744.076c-2.852,2.469-4.926,4.313-7.097,6.032c-0.138,0.109-1.444-0.688-1.523-1.175
		c-0.278-1.709,2.989-6.567,4.758-6.781C1422.577,742.041,1423.629,743.08,1425.526,744.076z"/>
	<path fill="#BD2331" d="M1456.512,735.975c-0.762,0.428-1.553,0.812-2.281,1.293c-2.174,1.433-4.287,2.958-6.51,4.312
		c-0.432,0.263-1.577,0.135-1.783-0.194c-0.312-0.496-0.375-1.685-0.037-1.962c2.361-1.942,4.781-3.835,7.356-5.475
		c0.557-0.354,1.813,0.392,2.745,0.631C1456.174,735.046,1456.344,735.51,1456.512,735.975z"/>
	<path fill="#BD2331" d="M1451.02,775.422c-1.857,1.871-3.045,3.067-4.231,4.263c-1.075-1.249-2.839-2.386-3.067-3.773
		c-0.387-2.337,1.502-3.669,3.752-3.376C1448.491,772.668,1449.352,774.006,1451.02,775.422z"/>
	<path fill="#BD2331" d="M928.122,1158.832c-3.719-1.626-4.666-4.006-2.789-6.988c0.464-0.738,2.343-1.537,2.557-1.317
		c0.884,0.907,1.942,2.224,1.886,3.335C929.688,1155.536,928.722,1157.165,928.122,1158.832z"/>
	<path fill="#BD2331" d="M1072.814,1068.544c-0.903-2.606-1.723-4.97-2.556-7.372c1.076-0.344,2.822-0.88,4.554-1.463
		c1.995-0.668,2.496,0.68,2.024,1.97c-0.824,2.249-2.109,4.335-3.261,6.455C1073.429,1068.406,1072.928,1068.486,1072.814,1068.544z
		"/>
	<path fill="#BD2331" d="M1200.374,1007.062c1.555,0.426,3.246,0.609,4.607,1.377c0.686,0.385,1.271,1.984,1.028,2.765
		c-0.497,1.604-1.581,3.028-2.807,5.21c-1.329-3.16-2.538-6.039-3.75-8.918C1199.76,1007.353,1200.067,1007.209,1200.374,1007.062z"
		/>
	<path fill="#BD2331" d="M1227.252,1058.024c-3.838-3.187-0.574-6.536-1.969-9.34c0.331-0.222,0.659-0.442,0.988-0.664
		c1.405,1.54,3.729,2.964,3.948,4.658C1230.424,1054.26,1228.392,1056.129,1227.252,1058.024z"/>
	<path fill="#BD2331" d="M1406.379,728.705c1.652,3.57,1.02,4.724-2.988,6.798c-1.543,0.799-2.479,0.214-3.855-2.827
		C1401.709,731.416,1403.938,730.123,1406.379,728.705z"/>
	<path fill="#BD2331" d="M1485.877,746.299c-1.379-0.628-2.708-0.923-3.586-1.717c-1-0.905-1.387-3.175-3.035-0.618
		c-0.049,0.077-0.863-0.117-0.988-0.358c-0.246-0.479-0.545-1.336-0.32-1.584c1.185-1.31,2.48-2.535,3.859-3.638
		c0.217-0.172,1.392,0.305,1.555,0.71C1484.241,741.285,1484.94,743.547,1485.877,746.299z"/>
	<path fill="#BD2331" d="M1346.881,960.521c-1.902-0.958-4.008-1.668-5.615-2.984c-0.74-0.605-0.508-2.4-0.715-3.656
		c1.021,0.105,2.38-0.166,2.998,0.389c1.655,1.482,2.994,3.321,4.459,5.018C1347.633,959.699,1347.256,960.11,1346.881,960.521z"/>
	<path fill="#BD2331" d="M894.014,1038.012c-2.017,1.682-3.144,3.033-4.576,3.568c-0.438,0.164-2.601-2.13-2.408-2.908
		c0.336-1.352,1.711-2.787,3.02-3.397C890.633,1035.002,892.11,1036.642,894.014,1038.012z"/>
	<path fill="#BD2331" d="M1279.946,952.209c-1.359-1.729-2.639-3.354-3.916-4.98c0.111-0.399,0.222-0.799,0.333-1.197
		c1.597-0.176,3.744-1.089,4.681-0.387C1283.534,947.514,1282.418,949.752,1279.946,952.209z"/>
	<path fill="#BD2331" d="M1369.937,755.801c1.056,1.042,2.112,2.084,3.167,3.125c-1.729,0.885-3.428,1.85-5.225,2.565
		c-0.252,0.101-1.535-1.283-1.414-1.537C1367.133,758.551,1366.673,756.079,1369.937,755.801z"/>
	<path fill="#BD2331" d="M1497.397,821.42c-1.619,1.201-2.822,2.665-3.482,2.451c-1.088-0.352-2.582-1.833-2.527-2.758
		c0.076-1.268,1.436-2.46,2.246-3.684C1494.698,818.558,1495.762,819.686,1497.397,821.42z"/>
	<path fill="#BD2331" d="M925.675,1111.068c1.873-1.666,3.146-2.8,4.418-3.934c0.499,0.938,1.427,1.885,1.404,2.807
		c-0.042,1.685-0.103,3.949-2.494,3.969C928.115,1113.918,927.215,1112.443,925.675,1111.068z"/>
	<path fill="#BD2331" d="M846.845,978.999c2.857,0.202,4.333,2.141,5.42,4.447c0.241,0.512,0.202,1.522-0.14,1.837
		c-0.334,0.31-1.3,0.21-1.845-0.034C847.262,983.903,846.212,981.929,846.845,978.999z"/>
	<path fill="#BD2331" d="M1429.389,763.287c2.346-0.824,4.23-1.684,6.208-2.084c0.769-0.154,1.746,0.727,3.422,1.504
		c-2.937,1.275-4.931,2.327-7.046,3.01C1429.694,766.452,1428.993,765.416,1429.389,763.287z"/>
	<path fill="#BD2331" d="M1240.141,964.504c2.33,1.596,4.528,2.557,3.363,5.35c-0.342,0.822-1.349,1.368-2.051,2.041
		c-0.742-0.961-1.926-1.841-2.117-2.901C1239.114,967.764,1239.759,966.377,1240.141,964.504z"/>
	<path fill="#BD2331" d="M1393.084,959.342c-0.801,1.012-1.186,1.955-1.854,2.249c-1.354,0.593-2.854,0.858-4.312,1.188
		c-0.162,0.037-0.586-0.356-0.613-0.583c-0.09-0.77-0.36-2.037-0.021-2.248c1.441-0.9,3.037-1.626,4.668-2.104
		C1391.399,957.713,1392.162,958.664,1393.084,959.342z"/>
	<path fill="#BD2331" d="M855.158,1024.916c-0.666-2.609-0.343-4.793,1.962-6.039c0.378-0.205,2.266,1.193,2.455,2.066
		C860.024,1023.035,857.818,1024.923,855.158,1024.916z"/>
	<path fill="#BD2331" d="M519.104,1016.854c-0.979,3.776-1.957,7.553-2.965,11.445c-0.897-0.099-2.87-2.475-2.17-3.827
		c1.413-2.73,3.212-5.262,4.853-7.873C518.916,1016.684,519.01,1016.77,519.104,1016.854z"/>
	<path fill="#BD2331" d="M1425.161,715.229c0.09,0.101,0.692,0.767,0.962,1.063c-1.532,1.668-2.726,3.136-4.11,4.392
		c-0.555,0.505-1.641,0.905-2.282,0.703c-0.692-0.218-1.538-1.171-1.579-1.849c-0.033-0.546,0.939-1.321,1.626-1.711
		C1421.259,716.988,1422.846,716.328,1425.161,715.229z"/>
	<path fill="#BD2331" d="M1377.926,719.893c-2.938,3.579-4.02,3.899-5.928,1.505c-0.559-0.7-0.219-2.116-0.289-3.205
		c0.814,0.032,1.676-0.095,2.432,0.133C1375.372,718.697,1376.53,719.3,1377.926,719.893z"/>
	<path fill="#BD2331" d="M886.569,1053.273c-1.538-1.83-4.646-2.449-2.885-5.311c0.462-0.75,2.841-1.326,3.32-0.882
		C889.006,1048.934,887.84,1050.979,886.569,1053.273z"/>
	<path fill="#BD2331" d="M1137.472,1046.845c-1.348,1.171-2.672,2.874-3.188,2.657c-1.192-0.502-2.399-1.809-2.782-3.042
		c-0.188-0.604,1.701-2.661,2.203-2.515C1134.94,1044.301,1135.914,1045.555,1137.472,1046.845z"/>
	<path fill="#BD2331" d="M840.325,871.016c1.262-2.412,2.465-4.714,4.104-7.847c0.58,1.197,1.448,2.12,1.289,2.804
		C844.622,870.7,843.744,871.502,840.325,871.016z"/>
	<path fill="#BD2331" d="M1294.723,914.017c-3.879-2.456-4.15-3.39-2.24-7.126C1295.201,908.186,1295.868,910.18,1294.723,914.017z"
		/>
	<path fill="#BD2331" d="M1129.235,1043.229c0.109,2.039-1.051,2.638-2.957,1.782c-1.244-0.557-2.447-1.339-3.431-2.271
		c-0.463-0.438-0.366-1.469-0.522-2.231c0.789,0.011,1.688-0.219,2.348,0.081
		C1126.135,1041.257,1127.477,1042.189,1129.235,1043.229z"/>
	<path fill="#BD2331" d="M985.216,1101.191c-1.962-0.693-4.146-1.182-3.425-3.822c0.229-0.828,1.969-2.043,2.59-1.83
		C987.543,1096.611,986.584,1098.806,985.216,1101.191z"/>
	<path fill="#BD2331" d="M1346.004,865.475c-1.547-1.254-2.76-2.235-3.971-3.217c0.66-0.525,1.561-1.633,1.939-1.477
		c1.633,0.672,4.441-0.721,4.712,2.248C1348.741,863.642,1347.237,864.395,1346.004,865.475z"/>
	<path fill="#BD2331" d="M1455.674,915.246c-3.672,0.529-6.365-1.264-6.648-3.688c-0.168-1.436,0.657-2.384,1.883-1.417
		C1452.569,911.45,1453.849,913.242,1455.674,915.246z"/>
	<path fill="#BD2331" d="M746.192,940.326c-1.083-1.861-2.052-2.83-2.08-3.824c-0.019-0.673,1.199-1.813,2.021-1.984
		c1.572-0.326,3.196,0.396,2.995,2.241C749.021,937.741,747.685,938.59,746.192,940.326z"/>
	<path fill="#BD2331" d="M1398.559,879.951c-1.854,0.426-3.626,0.834-5.454,1.254c-0.803-1.986-1.003-3.471,1.04-4.231
		C1396.389,876.139,1397.998,876.662,1398.559,879.951z"/>
	<path fill="#BD2331" d="M685.676,1016.09c2.358-1.771,4.104-2.74,5.232-0.507c0.724,1.436,0.759,3.977-1.269,4.138
		C688.482,1019.812,687.136,1017.509,685.676,1016.09z"/>
	<path fill="#BD2331" d="M1374.323,703.289c-2.141-2.668-1.693-4.888,1.078-5.275c0.814-0.114,1.72,0.432,2.584,0.675
		c-0.342,0.947-0.494,2.04-1.078,2.804C1376.348,702.222,1375.342,702.61,1374.323,703.289z"/>
	<path fill="#BD2331" d="M1452.947,705.29c-0.622,1.194-1.079,2.534-1.94,3.519c-0.381,0.437-2.15,0.451-2.303,0.153
		c-0.538-1.055-1.164-3.163-0.832-3.367c1.193-0.732,2.762-0.849,4.19-1.198C1452.356,704.694,1452.651,704.992,1452.947,705.29z"/>
	<path fill="#BD2331" d="M1420.309,773.409c2.76-0.648,4.416-1.037,6.2-1.456c0.714,2.682-0.542,4.438-2.446,5.118
		C1423.446,777.293,1421.959,775.078,1420.309,773.409z"/>
	<path fill="#BD2331" d="M734.61,1039.91c1.573-1.426,2.706-2.451,3.837-3.477c0.571,0.652,1.756,1.62,1.611,1.9
		c-0.759,1.463-1.856,2.752-2.836,4.102C736.541,1041.777,735.86,1041.119,734.61,1039.91z"/>
	<path fill="#BD2331" d="M1361.426,719.009c1.006-1.221,1.689-2.052,2.373-2.882c0.765,1.348,1.77,2.63,2.165,4.079
		c0.144,0.524-1.172,1.447-1.821,2.188C1363.309,721.356,1362.475,720.317,1361.426,719.009z"/>
	<path fill="#BD2331" d="M999.411,1098.791c1.134,1.532,2.324,2.433,2.281,3.27c-0.049,0.939-1.211,1.822-1.889,2.73
		c-0.893-0.719-2.49-1.418-2.512-2.164C997.26,1101.578,998.397,1100.494,999.411,1098.791z"/>
	<path fill="#BD2331" d="M878.032,1084.758c0.487,1.776,0.873,3.178,1.242,4.524c-1.843,1.992-3.47,1.083-4.265-0.649
		C873.949,1086.327,876.067,1085.754,878.032,1084.758z"/>
	<path fill="#BD2331" d="M1366.893,1004.438c-0.492-0.965-1.371-1.936-1.356-2.891c0.012-0.781,1.089-1.545,1.693-2.317
		c0.876,0.937,2.032,1.753,2.493,2.86c0.199,0.479-1.034,1.555-1.617,2.359C1367.702,1004.444,1367.297,1004.44,1366.893,1004.438z"
		/>
	<path fill="#BD2331" d="M1333.606,863.236c-0.797-1.658-1.594-3.315-2.787-5.802c1.688,0.136,2.983-0.158,3.566,0.357
		C1336.264,859.453,1335.227,861.27,1333.606,863.236z"/>
	<path fill="#BD2331" d="M928.907,1188.678c-0.323-2.028-0.523-4.02,1.726-4.919c0.392-0.157,2.005,1.224,2.021,1.917
		C932.706,1187.927,931.321,1188.969,928.907,1188.678z"/>
	<path fill="#BD2331" d="M1176.598,1023.137c0.557,1.073,1.333,2.104,1.556,3.241c0.079,0.405-1.515,1.662-1.778,1.515
		c-0.982-0.551-2.031-1.395-2.443-2.385c-0.22-0.526,0.814-1.576,1.285-2.389
		C1175.676,1023.125,1176.138,1023.131,1176.598,1023.137z"/>
	<path fill="#BD2331" d="M1175.622,1044.001c0,2.087,0,3.735,0,5.384c-1.001-0.362-2.465-0.43-2.916-1.14
		C1171.474,1046.306,1172.47,1044.969,1175.622,1044.001z"/>
	<path fill="#BD2331" d="M1173.695,1040.592c-2.62,1.328-4.213,1.918-4.731-0.4c-0.238-1.062,0.32-2.3,0.518-3.459
		C1170.766,1037.909,1172.051,1039.086,1173.695,1040.592z"/>
	<path fill="#BD2331" d="M1371.03,862.503c1.576,0.122,2.18-3.563,4.134-0.993c0.492,0.646-0.636,2.525-1.019,3.839
		c-1.129-0.531-2.26-1.062-3.391-1.595C1370.846,863.338,1370.939,862.92,1371.03,862.503z"/>
	<path fill="#BD2331" d="M1405.565,807.918c-1.285,1.187-2.113,2.193-3.173,2.788c-0.322,0.181-1.286-0.782-1.954-1.221
		c0.8-1.134,1.539-2.325,2.486-3.317C1403.028,806.059,1404.323,807.084,1405.565,807.918z"/>
	<path fill="#BD2331" d="M946.741,1154.912c1.216-0.837,2.117-1.789,2.446-1.621c1.134,0.578,2.065,1.549,3.075,2.371
		c-0.729,0.668-1.691,2.021-2.135,1.869C949.026,1157.15,948.162,1156.084,946.741,1154.912z"/>
	<path fill="#BD2331" d="M1325.119,898.632c-2.079,1.043-3.905,0.927-5.042-1.181c-0.15-0.283,0.926-1.686,1.629-1.89
		C1324.325,894.799,1324.884,896.593,1325.119,898.632z"/>
	<path fill="#BD2331" d="M1455.543,764.105c-1.857-0.611-3.411-1.122-4.964-1.633c0.694-0.808,1.348-2.251,2.087-2.295
		C1454.42,760.07,1455.698,761.093,1455.543,764.105z"/>
	<path fill="#BD2331" d="M1003.77,1045.787c-1.066-1.307-2.197-2.112-2.098-2.711c0.132-0.787,1.339-2.053,1.895-1.961
		c0.877,0.143,1.852,1.127,2.26,1.999C1005.997,1043.479,1004.819,1044.472,1003.77,1045.787z"/>
	<path fill="#BD2331" d="M1171.145,1061.463c2.373-0.52,4.126-1.192,4.24,1.168c0.047,1.01-0.938,2.068-1.453,3.104
		C1173.094,1064.449,1172.254,1063.163,1171.145,1061.463z"/>
	<path fill="#BD2331" d="M1180.225,1036.065c-0.859,0.213-1.926,0.848-2.531,0.549c-1.074-0.531-2.002-1.538-2.68-2.556
		c-0.159-0.238,0.932-1.309,1.449-1.994c0.964,0.738,1.93,1.477,2.895,2.215C1179.647,1034.875,1179.936,1035.47,1180.225,1036.065z
		"/>
	<path fill="#BD2331" d="M1468.556,742.161c0.513,3.425,0.196,3.781-3.515,4.165
		C1464.204,743.285,1464.532,742.877,1468.556,742.161z"/>
	<path fill="#BD2331" d="M1174.391,1082.818c1.287,0.662,2.576,1.323,3.863,1.984c-0.465,0.84-0.821,2.305-1.416,2.41
		c-2.561,0.453-2.373-1.873-3.1-3.263C1173.956,1083.573,1174.174,1083.195,1174.391,1082.818z"/>
	<path fill="#BD2331" d="M1307.16,930.02c0.983-0.756,1.966-1.514,2.947-2.27c0.466,0.812,1.187,1.586,1.313,2.447
		c0.102,0.693-0.643,2.167-0.792,2.139c-1.101-0.212-2.146-0.712-3.208-1.12C1307.333,930.817,1307.247,930.419,1307.16,930.02z"/>
	<path fill="#BD2331" d="M1344.592,876.235c-1.582,0-3.164,0-4.746,0c0.182-0.995,0.094-2.667,0.594-2.866
		c1.917-0.763,3.137,0.598,4.316,1.727C1344.702,875.475,1344.647,875.855,1344.592,876.235z"/>
	<path fill="#BD2331" d="M1250.415,814.084c-0.783-1.289-1.682-2.535-2.227-3.92c-0.084-0.213,1.465-1.067,2.259-1.625
		c0.527,1.609,1.054,3.219,1.579,4.828C1251.49,813.605,1250.952,813.846,1250.415,814.084z"/>
	<path fill="#BD2331" d="M1476.842,800.496c-0.769-2.294-1.609-4.271,1.01-4.474c0.606-0.048,1.318,1.275,1.983,1.968
		C1478.836,798.826,1477.84,799.66,1476.842,800.496z"/>
	<path fill="#BD2331" d="M829.438,826.035c1.86,0.313,3.945,0.293,3.61,2.919c-0.058,0.454-1.518,1.151-2.202,1.027
		C828.351,829.53,828.88,827.791,829.438,826.035z"/>
	<path fill="#BD2331" d="M935.111,1146.859c-1.272,0.764-2.066,1.609-2.804,1.562c-0.579-0.037-1.637-1.323-1.511-1.799
		c0.263-0.999,1.164-1.83,1.804-2.73C933.28,1144.695,933.96,1145.499,935.111,1146.859z"/>
	<path fill="#BD2331" d="M1368.708,918.19c1.921,0.482,4.229-0.366,4.61,2.382c0.053,0.375-0.993,1.329-1.44,1.274
		C1370.057,921.623,1368.28,921.104,1368.708,918.19z"/>
	<path fill="#BD2331" d="M1346.331,893.295c-3.78,0.513-4.129-1.603-4.666-3.41c-0.022-0.074,1.605-0.88,1.744-0.719
		C1344.368,890.271,1345.137,891.542,1346.331,893.295z"/>
	<path fill="#BD2331" d="M1408.635,783.203c-1.834-3.275-1.052-4.344,2.723-4.775
		C1413.021,781.562,1409.444,781.216,1408.635,783.203z"/>
	<path fill="#BD2331" d="M829.222,956.984c-0.683,1.476-1.211,2.614-1.738,3.754c-0.813-0.711-2.259-1.371-2.319-2.14
		C825.003,956.557,826.534,956.354,829.222,956.984z"/>
	<path fill="#BD2331" d="M1330.321,880.501c-0.332-1.299-0.664-2.599-0.995-3.897c0.962,0.081,2.198-0.188,2.833,0.311
		c1.916,1.502,0.16,2.404-0.677,3.406C1331.095,880.381,1330.708,880.441,1330.321,880.501z"/>
	<path fill="#BD2331" d="M1299.299,892.539c2.363,2.154,1.42,4.848,1.143,7.455C1298.336,897.832,1299.333,895.109,1299.299,892.539
		z"/>
	<path fill="#BD2331" d="M1214.268,1045.178c0.047,0.887,0.311,1.834,0.08,2.641c-0.236,0.828-0.956,1.518-1.463,2.27
		c-0.49-0.858-1.491-1.815-1.348-2.548c0.201-1.023,1.257-1.879,1.947-2.808C1213.745,1044.882,1214.006,1045.03,1214.268,1045.178z
		"/>
	<path fill="#BD2331" d="M1130.766,1056.892c-0.754-1.331-1.521-2.507-2.074-3.774c-0.15-0.349,0.213-1.109,0.568-1.428
		c0.252-0.228,0.973-0.191,1.333,0.004C1132.087,1052.507,1132.298,1055.121,1130.766,1056.892z"/>
	<path fill="#BD2331" d="M888.427,832.387c0.299-1.962,0.463-3.043,0.703-4.611c1.683,0.957,2.963,1.685,5.042,2.867
		C891.969,831.312,890.583,831.732,888.427,832.387z"/>
	<path fill="#BD2331" d="M866.861,876.375c0.503,1.007,1.199,1.975,1.41,3.038c0.079,0.396-1.074,1.512-1.489,1.428
		c-0.714-0.146-1.769-0.936-1.815-1.522c-0.072-0.928,0.569-1.912,0.909-2.873C866.203,876.422,866.532,876.398,866.861,876.375z"/>
	<path fill="#BD2331" d="M937.073,1134.164c0.426,1.111,1.176,2.223,1.172,3.332c-0.003,0.814-0.993,1.625-1.543,2.438
		c-0.357-0.142-0.715-0.285-1.074-0.428c0.078-1.666,0.155-3.334,0.233-5.001C936.265,1134.393,936.668,1134.278,937.073,1134.164z"
		/>
	<path fill="#BD2331" d="M1011.02,584.895c-1.309,0.805-2.19,1.706-2.604,1.526c-0.853-0.368-1.453-1.313-2.158-2.022
		c0.576-0.521,1.265-1.551,1.707-1.455C1008.862,583.142,1009.624,583.947,1011.02,584.895z"/>
	<path fill="#BD2331" d="M1321.145,865.315c-1,0.608-1.897,1.407-2.123,1.248c-0.867-0.608-1.676-1.442-2.159-2.371
		c-0.152-0.293,0.782-1.15,1.219-1.749C1318.975,863.279,1319.866,864.117,1321.145,865.315z"/>
	<path fill="#BD2331" d="M735.266,968.102c-0.948-1.467-1.685-2.339-2.054-3.346c-0.105-0.287,0.856-0.964,1.328-1.463
		c0.746,0.832,1.623,1.592,2.158,2.543C736.852,966.111,736.027,966.938,735.266,968.102z"/>
	<path fill="#BD2331" d="M1378.965,873.75c-1.104,0.865-1.912,1.854-2.27,1.711c-0.807-0.322-1.693-1.107-1.945-1.896
		c-0.143-0.445,1.098-1.896,1.391-1.81C1377.015,872.017,1377.729,872.814,1378.965,873.75z"/>
	<path fill="#BD2331" d="M935.587,672.994c-0.669,0.729-1.252,1.911-2.034,2.062c-0.808,0.157-1.81-0.687-2.727-1.094
		c0.088-0.34,0.177-0.68,0.266-1.02c1.268-0.269,2.537-0.538,3.807-0.805C935.128,672.422,935.357,672.708,935.587,672.994z"/>
	<path fill="#BD2331" d="M1394.612,735.903c-0.508,1.113-1.018,2.226-1.525,3.338c-0.635-0.38-1.27-0.759-1.904-1.138
		c0.689-1,1.381-2,2.069-3C1393.706,735.37,1394.159,735.637,1394.612,735.903z"/>
	<path fill="#BD2331" d="M1030.774,1128.846c0.242-1.198,0.486-2.396,0.729-3.595c0.686,0.497,1.898,0.962,1.934,1.501
		c0.059,0.874-0.659,1.799-1.049,2.703C1031.85,1129.252,1031.312,1129.049,1030.774,1128.846z"/>
	<path fill="#BD2331" d="M1390.663,811.246c-0.695-1.059-1.393-2.118-2.09-3.177c0.9-0.194,2.406-0.784,2.587-0.507
		c0.562,0.858,0.62,2.045,0.873,3.105C1391.576,810.861,1391.12,811.055,1390.663,811.246z"/>
	<path fill="#BD2331" d="M1278.967,1062.407c0.46,2.104,0.773,3.539,1.129,5.161
		C1276.514,1066.734,1276.151,1065.53,1278.967,1062.407z"/>
	<path fill="#BD2331" d="M1384.702,692.061c-1.254,0.639-2.51,1.279-3.764,1.917c-0.223-0.172-0.445-0.344-0.668-0.516
		c0.492-1.034,0.746-2.394,1.559-2.988c0.561-0.409,1.896,0.246,2.885,0.425C1384.708,691.287,1384.706,691.673,1384.702,692.061z"
		/>
	<path fill="#BD2331" d="M1410.958,662.49c0.689,1.166,1.57,2.048,1.387,2.478c-0.328,0.775-1.295,1.279-1.995,1.897
		c-0.481-0.614-1.435-1.321-1.336-1.821C1409.166,664.266,1410.034,663.629,1410.958,662.49z"/>
	<path fill="#BD2331" d="M957.364,1173.873c-3.586-0.981-1.62-2.602-0.498-4.221
		C959.012,1170.854,958.744,1172.258,957.364,1173.873z"/>
	<path fill="#BD2331" d="M875.51,839.108c0.073,1.255,0.146,2.509,0.219,3.763c-0.795-0.037-1.589-0.074-2.385-0.112
		c0.249-1.258,0.498-2.515,0.747-3.772C874.564,839.027,875.036,839.068,875.51,839.108z"/>
	<path fill="#BD2331" d="M859.976,1101.667c0.472,1.003,0.943,2.005,1.415,3.007c-1.001,0.244-2.002,0.487-3.823,0.932
		c0.758-1.854,1.158-2.833,1.559-3.812C859.409,1101.751,859.692,1101.709,859.976,1101.667z"/>
	<path fill="#BD2331" d="M842.272,1035.071c-0.192,1.387-0.371,2.775-0.645,4.146c-0.009,0.041-1.506-0.15-1.504-0.182
		c0.087-1.39,0.267-2.775,0.435-4.159C841.129,1034.941,841.701,1035.006,842.272,1035.071z"/>
	<path fill="#BD2331" d="M1224.526,1042.979c0.475,1.857,1.338,3.512-1.284,4.017
		C1221.575,1045.125,1221.961,1043.868,1224.526,1042.979z"/>
	<path fill="#BD2331" d="M1331.436,978.797c3.973,0.206,3.443,2.232,3.295,4.043c-0.27,0.152-0.541,0.307-0.812,0.46
		C1333.21,982.014,1332.501,980.729,1331.436,978.797z"/>
	<path fill="#BD2331" d="M1353.209,694.604c-0.129,1.194-0.258,2.389-0.387,3.584c-0.689-0.211-1.987-0.511-1.973-0.621
		c0.158-1.09,0.533-2.149,0.846-3.218C1352.201,694.435,1352.705,694.52,1353.209,694.604z"/>
	<path fill="#BD2331" d="M1473.777,756.43c-0.565,1.059-1.134,2.114-1.702,3.172c-0.504-0.47-1.515-1.115-1.424-1.375
		c0.346-0.99,1.047-1.854,1.615-2.766C1472.77,755.783,1473.274,756.107,1473.777,756.43z"/>
	<path fill="#BD2331" d="M690.884,960.302c0.562-0.89,1.013-1.896,1.752-2.597c0.212-0.201,1.256,0.473,1.918,0.744
		c-0.779,0.923-1.558,1.845-2.337,2.768C691.773,960.912,691.329,960.606,690.884,960.302z"/>
	<path fill="#BD2331" d="M1348.778,921.287c0.295,1.131,0.59,2.26,0.886,3.389c-0.732,0.133-1.465,0.264-2.196,0.396
		c-0.088-1.192-0.174-2.386-0.262-3.578C1347.729,921.425,1348.254,921.355,1348.778,921.287z"/>
	<path fill="#BD2331" d="M1404.358,812.877c0.143-0.126,0.273-0.342,0.432-0.363c1.391-0.188,2.788-0.342,4.186-0.508
		c-0.01,0.531,0.037,1.516-0.035,1.524c-1.533,0.185-3.079,0.26-4.623,0.355C1404.331,813.549,1404.343,813.213,1404.358,812.877z"
		/>
	<path fill="#BD2331" d="M1348.524,350.939c-0.469,1.083-0.938,2.165-1.404,3.249c-0.6-0.514-1.786-1.337-1.704-1.489
		c0.487-0.918,1.265-1.683,1.945-2.499C1347.749,350.447,1348.137,350.693,1348.524,350.939z"/>
	<path fill="#BD2331" d="M1377.76,841.617c-1.032-0.324-2.064-0.648-3.098-0.973c0.41-0.768,0.82-1.537,1.232-2.305
		c0.848,0.633,1.694,1.266,2.541,1.9C1378.211,840.698,1377.987,841.158,1377.76,841.617z"/>
	<path fill="#BD2331" d="M1053.999,1072.5c-0.459,1.225-0.86,2.479-1.465,3.627c-0.058,0.109-1.379-0.445-2.467-0.812
		c1.126-1.394,1.938-2.397,2.749-3.401C1053.209,1072.108,1053.604,1072.304,1053.999,1072.5z"/>
	<path fill="#BD2331" d="M1381.837,806.338c0.333,0.782,0.993,1.604,0.905,2.335c-0.082,0.671-0.971,1.245-1.504,1.86
		c-0.588-0.589-1.4-1.093-1.67-1.805c-0.146-0.383,0.634-1.12,0.996-1.698C1380.989,806.8,1381.413,806.568,1381.837,806.338z"/>
	<path fill="#BD2331" d="M644.145,974.162c-1.408,1.278-2.814,2.557-4.221,3.834c-0.292-0.328-0.583-0.656-0.874-0.984
		c1.467-1.213,2.933-2.425,4.399-3.637C643.681,973.637,643.913,973.899,644.145,974.162z"/>
	<path fill="#BD2331" d="M753.086,921.031c-0.939-0.35-1.879-0.699-2.818-1.047c0.255-0.586,0.638-1.697,0.747-1.672
		c0.937,0.227,1.823,0.656,2.725,1.026C753.522,919.902,753.304,920.467,753.086,921.031z"/>
	<path fill="#BD2331" d="M1280.778,959.162c0.795,0.979,1.615,1.94,2.338,2.972c0.059,0.086-0.554,0.64-0.854,0.977
		c-0.92-0.949-1.84-1.897-2.76-2.847C1279.928,959.896,1280.353,959.528,1280.778,959.162z"/>
</g>
</svg>
