<?xml version="1.0" encoding="utf-8"?>
<!-- Generator: Adobe Illustrator 16.0.0, SVG Export Plug-In . SVG Version: 6.00 Build 0)  -->
<!DOCTYPE svg PUBLIC "-//W3C//DTD SVG 1.1//EN" "http://www.w3.org/Graphics/SVG/1.1/DTD/svg11.dtd">
<svg version="1.1" id="Layer_1" xmlns="http://www.w3.org/2000/svg" xmlns:xlink="http://www.w3.org/1999/xlink" x="0px" y="0px"
	 width="725.438px" height="266.648px" viewBox="0 0 725.438 266.648" enable-background="new 0 0 725.438 266.648"
	 xml:space="preserve">
<g>
	<path fill="#BD2331" d="M260.869,181.725c0.554,0.64,1.271,1.19,1.603,1.917c0.534,1.172,0.753,2.48,1.211,3.691
		c0.87,2.295,3.091,2.693,4.465,0.633c1.575-2.362,2.815-2.624,5.198-0.79c1.008,0.775,3.32-0.26,5.039-0.266
		c2.513-0.009,5.465-0.622,7.436,0.463c2.665,1.47,5.077,4.016,6.609,6.671c0.8,1.387-0.07,4.236-1.024,5.964
		c-0.658,1.192-2.69,1.805-4.231,2.236c-0.522,0.146-1.591-0.938-2.109-1.673c-0.782-1.111-1.22-2.457-1.944-3.615
		c-1.415-2.26-5.097-2.111-6.667,0.088c-0.627,0.878-1.884,2.186-2.478,2.013c-1.013-0.298-1.712-1.626-2.577-2.487
		c-0.566-0.564-1.251-1.587-1.775-1.521c-3.531,0.434-7.117,0.808-10.518,1.785c-3.166,0.909-6.042,2.807-9.196,3.785
		c-3.667,1.137-4.211,0.656-5.489-2.863c-1.299-3.573-0.539-6.686,1.957-7.953c3.117-1.583,6.438-2.627,8.564-5.96
		C255.763,182.552,258.521,182.498,260.869,181.725z"/>
	<path fill="#BD2331" d="M208.625,195.729c3.3-4.413,5.392-5.048,9.143-2.912c2.242-4.208,2.942-4.372,6.025-0.483
		c1.604,2.023,3.027,4.418,3.717,6.874c0.715,2.538-0.869,3.611-3.468,3.118c-1.871-0.355-3.844-0.283-5.656-0.805
		c-2.429-0.7-4.785-1.702-7.091-2.752c-1.031-0.47-1.863-1.371-2.879-2.146c-0.534,0.861-0.839,1.608-1.364,2.138
		c-0.771,0.78-1.908,2.13-2.519,1.953c-1.489-0.43-3.047-1.358-4.049-2.535c-0.978-1.149-1.438-2.818-1.856-4.334
		c-0.209-0.758-0.057-1.862,0.395-2.463c0.293-0.391,1.437-0.277,2.166-0.17c0.773,0.113,1.544,0.785,2.25,0.697
		C206.365,191.542,207.877,193.035,208.625,195.729z"/>
	<path fill="#BD2331" d="M145.658,207.359c1.928-2.893,5.104,1.285,7.354-1.456c0-0.106,0.134-0.895-0.022-1.621
		c-0.842-3.945,0.141-6.832,4.238-8.335c0.876-0.321,1.431-1.526,2.286-2.499c4.164,1.337,5.212,4.662,4.961,8.804
		c0.292,0.137,0.583,0.273,0.875,0.409c0.525-0.789,1.008-1.612,1.588-2.358c0.6-0.771,1.334-2.085,1.94-2.047
		c0.812,0.051,1.949,1.023,2.265,1.858c1.195,3.168-1.182,6.485-5.244,6.909c-6.638,0.692-13.314,1.023-19.974,1.506
		C145.837,208.14,145.748,207.75,145.658,207.359z"/>
	<path fill="#BD2331" d="M300.489,195.631c0.329-3.529,2.048-4.795,4.696-5.213c2.655-0.418,4.525,0.852,5.995,2.756
		c0.332,0.43,0.006,1.625-0.358,2.278c-0.86,1.542-0.461,2.464,0.91,3.472c2.075,1.528,4.037,3.225,5.93,4.977
		c1.193,1.105,1.215,2.424-0.566,2.887c-2.481,0.646-5.077,1.479-7.55,1.285c-1.502-0.117-3.663-1.76-4.116-3.172
		c-0.825-2.568-1.778-4.828-3.651-6.791C301.016,197.312,300.71,196.078,300.489,195.631z"/>
	<path fill="#BD2331" d="M189.32,199.199c-1.613-1.251-2.77-2.034-3.782-2.975c-0.638-0.593-1.331-1.375-1.459-2.162
		c-0.06-0.365,1.149-0.962,1.811-1.414c0.396-0.271,0.845-0.465,1.634-0.891c-2.336-1.696-7.705-0.822-4.929-6.393
		c3.294,1.924,6.083,0.367,8.936-1.301c0.653-0.382,2.047-0.38,2.542,0.065c0.643,0.579,1.112,1.841,0.971,2.696
		c-0.303,1.846-0.882,3.293,0.895,5.045c1.188,1.173,1.296,3.589-1.081,4.71C192.799,197.552,190.742,198.525,189.32,199.199z"/>
	<path fill="#BD2331" d="M180.183,191.683c0.165,0.963,0.347,1.921,0.49,2.887c0.13,0.878,0.601,1.98,0.246,2.598
		c-0.812,1.42-2.034,2.604-3.09,3.883c-1.206-1.389-2.549-2.687-3.572-4.2c-0.712-1.054-0.812-2.51-1.488-3.599
		c-1.191-1.916-1.162-3.33,1.083-4.295c0.64-0.275,1.25-0.63,1.904-0.865C179.541,186.728,180.673,187.602,180.183,191.683z"/>
	<path fill="#BD2331" d="M466.269,110.673c3.699,0.266,6.57,3.225,5.753,5.56c-0.587,1.674-2.33,3.313-3.974,4.128
		c-1.277,0.633-5.104-4.88-4.421-6.744C464.122,112.264,465.675,111.299,466.269,110.673z"/>
	<path fill="#BD2331" d="M344.208,151.484c0.57,2.038-0.612,5.385-2.204,5.797c-1.798,0.465-5.672-2.352-5.865-4.438
		c-0.07-0.762,0.278-1.765,0.8-2.304c0.336-0.346,1.35-0.126,2.039-0.018C340.689,150.793,342.389,151.144,344.208,151.484z"/>
	<path fill="#BD2331" d="M275.943,163.906c-0.777,2.453-0.993,4.424-3.504,4.165c-2.371-0.243-3.449-2.312-3.039-4.228
		c0.321-1.497,2.04-2.693,3.138-4.023C273.674,161.181,274.808,162.545,275.943,163.906z"/>
	<path fill="#BD2331" d="M290.604,163.312c-1.135-1.014-3.128-1.996-3.602-3.468c-0.366-1.134,0.951-3.087,1.997-4.245
		c0.367-0.406,2.603,0.094,3.207,0.824C294.073,158.683,293.627,160.975,290.604,163.312z"/>
	<path fill="#BD2331" d="M324.036,198.754c-1.606,1.643-2.682,3.615-3.692,3.582c-1.732-0.055-3.763-0.996-3.931-3.441
		c-0.125-1.842,1.765-3.989,3.571-3.482C321.287,195.778,322.281,197.244,324.036,198.754z"/>
	<path fill="#BD2331" d="M277.484,171.529c-1.834-2.973-0.077-4.949,5.515-6.209C285.803,169.498,284.668,170.776,277.484,171.529z"
		/>
	<path fill="#BD2331" d="M382.508,170.379c-1.902,2.293-4.164,3.128-6.838,2.16c-0.565-0.206-1.307-1.643-1.184-1.772
		c1.262-1.338,2.51-2.921,4.118-3.636C380.084,166.473,381.627,168.014,382.508,170.379z"/>
	<path fill="#BD2331" d="M263.079,205.161c0.338-2.386,0.544-4.556,1.087-6.639c0.057-0.219,2.813-0.293,3.071,0.208
		c0.688,1.336,1.105,3.085,0.877,4.553C267.797,205.343,267.506,205.298,263.079,205.161z"/>
	<path fill="#BD2331" d="M348.328,178.762c-1.763,0.709-3.489,1.604-5.321,1.977c-0.391,0.079-1.837-1.95-1.622-2.645
		c0.382-1.231,1.661-3.06,2.568-3.06c1.487-0.003,2.976,1.256,4.463,1.982C348.387,177.599,348.357,178.18,348.328,178.762z"/>
	<path fill="#BD2331" d="M239.521,190.528c0.79,1.322,1.863,2.571,2.22,4.001c0.131,0.523-1.642,2.214-2.194,2.064
		c-1.06-0.286-2.458-1.402-2.624-2.364c-0.189-1.097,0.812-2.4,1.294-3.612C238.652,190.586,239.087,190.556,239.521,190.528z"/>
	<path fill="#BD2331" d="M379.862,157.633c1.309,1.135,2.901,1.858,2.979,2.719c0.157,1.748-1.362,2.25-3.051,2.419
		c-2.107,0.212-2.415-1.349-2.394-2.555C377.411,159.481,378.718,158.771,379.862,157.633z"/>
	<path fill="#BD2331" d="M578.557,58.726c-2.353-1.152-3.681-2.711-2.379-4.978c0.299-0.519,2.734-0.595,3.346-0.003
		C581.37,55.525,579.705,57.071,578.557,58.726z"/>
	<path fill="#BD2331" d="M336.649,180.677c1.292,0.387,2.202,0.521,2.958,0.938c0.472,0.258,0.711,0.941,1.055,1.435
		c-0.511,0.254-1.002,0.569-1.538,0.747c-0.644,0.214-1.321,0.391-1.995,0.441c-0.902,0.067-1.847,0.122-2.702-0.095
		c-0.224-0.057-0.481-1.421-0.214-1.698C334.952,181.67,335.959,181.151,336.649,180.677z"/>
	<path fill="#BD2331" d="M354.224,206.723c1.406,1.741,2.813,2.722,2.81,3.696c-0.004,0.969-1.426,1.933-2.225,2.898
		c-0.673-0.795-1.801-1.537-1.903-2.4C352.782,209.883,353.533,208.744,354.224,206.723z"/>
	<path fill="#BD2331" d="M331.685,165.049c1.078,1.643,2.266,2.793,2.042,3.246c-0.527,1.068-1.728,1.805-2.655,2.675
		c-0.776-0.854-2.186-1.729-2.161-2.559C328.939,167.504,330.293,166.635,331.685,165.049z"/>
	<path fill="#BD2331" d="M154.136,190.285c-0.399-1.963-3.299-3.469-0.743-5.605c0.42-0.352,2.465,0.254,2.662,0.809
		C156.679,187.242,157.391,189.389,154.136,190.285z"/>
	<path fill="#BD2331" d="M232.443,192.114c0.57,0.925,1.811,2.15,1.561,2.71c-0.436,0.975-1.709,1.774-2.802,2.148
		c-0.385,0.131-1.884-1.304-1.796-1.851c0.172-1.075,1.099-2.03,1.714-3.034C231.561,192.096,232.002,192.104,232.443,192.114z"/>
	<path fill="#BD2331" d="M400.207,164.869c-1.125-1.412-1.834-2.302-2.541-3.191c1.086-0.49,2.144-1.204,3.271-1.342
		c0.35-0.042,1.204,1.469,1.234,2.29C402.193,163.192,401.195,163.797,400.207,164.869z"/>
	<path fill="#BD2331" d="M227.111,71.298c0.709,1.565,1.417,3.131,2.286,5.048c-3.791-0.148-4.551-1.621-3.247-4.66
		C226.47,71.556,226.791,71.427,227.111,71.298z"/>
	<path fill="#BD2331" d="M280.14,178.614c0.229-1.274,0.458-2.549,0.686-3.823c0.817,0.215,1.634,0.432,2.45,0.648
		c-0.398,1.211-0.797,2.42-1.195,3.632C281.433,178.919,280.786,178.766,280.14,178.614z"/>
	<path fill="#BD2331" d="M240.95,163.614c0.467,0.812,1.35,1.661,1.286,2.431c-0.065,0.793-1.053,1.51-1.638,2.262
		c-0.654-0.599-1.827-1.187-1.839-1.797c-0.018-0.938,0.761-1.893,1.202-2.841C240.291,163.65,240.621,163.633,240.95,163.614z"/>
	<path fill="#BD2331" d="M215.176,183.738c0.808,1.712,1.535,2.602,1.543,3.5c0.005,0.594-1.019,1.197-1.583,1.797
		c-0.53-0.689-1.435-1.355-1.485-2.078C213.6,186.189,214.357,185.363,215.176,183.738z"/>
	<path fill="#BD2331" d="M159.005,177.146c-0.483,1.158-0.965,2.316-1.45,3.474c-0.812-0.583-1.625-1.167-2.438-1.749
		c0.861-0.871,1.721-1.74,2.581-2.611C158.135,176.555,158.571,176.851,159.005,177.146z"/>
	<path fill="#BD2331" d="M147.718,204.817c-1.083-1.714-1.856-2.939-2.631-4.165c0.577-0.229,1.38-0.82,1.689-0.625
		C148.143,200.887,149.452,201.942,147.718,204.817z"/>
	<path fill="#BD2331" d="M161.655,118.686c-2.653-2.972-2.4-3.66,0.829-3.811C162.188,116.234,161.922,117.46,161.655,118.686z"/>
</g>
</svg>
