<?xml version="1.0" encoding="utf-8"?>
<!-- Generator: Adobe Illustrator 16.0.0, SVG Export Plug-In . SVG Version: 6.00 Build 0)  -->
<!DOCTYPE svg PUBLIC "-//W3C//DTD SVG 1.1//EN" "http://www.w3.org/Graphics/SVG/1.1/DTD/svg11.dtd">
<svg version="1.1" id="Layer_1" xmlns="http://www.w3.org/2000/svg" xmlns:xlink="http://www.w3.org/1999/xlink" x="0px" y="0px"
	 width="576.757px" height="1015.667px" viewBox="0 0 576.757 1015.667" enable-background="new 0 0 576.757 1015.667"
	 xml:space="preserve">
<g>
	<path fill="#BD2331" d="M154.988,710.072c0.884,0.48,1.822,0.884,2.642,1.455c2.517,1.752,3.208,1.488,4.044-1.516
		c0.494-1.777,0.967-3.596,1.773-5.237c0.362-0.737,1.453-1.242,2.32-1.575c0.997-0.383,2.112-0.458,3.632-0.756
		c-0.877-1.402-1.853-2.449-2.199-3.672c-0.295-1.045,0.132-2.293,0.239-3.453c1.069,0.538,2.221,0.963,3.176,1.656
		c0.546,0.395,0.773,1.23,1.136,1.855c0.921-1.729,1.387-3.975,2.626-4.547c1.266-0.583,3.287,0.697,4.986,0.727
		c0.945,0.018,2.137-0.637,2.804-1.368c0.892-0.979,1.213-2.466,2.074-3.487c4.24-5.027,2.79-10.592,1.497-16.623
		c1.613,0.118,3.02,0.186,4.418,0.335c2.396,0.255,3.908-1.131,4-3.489c0.067-1.74,0.505-3.463,0.592-5.203
		c0.11-2.193,0.999-4.359-0.5-6.605c-0.616-0.922-0.035-2.664,0.055-4.029c0.031-0.463,0.458-1.025,0.305-1.359
		c-1.36-2.979,0.379-4.02,2.768-5.039c4.997-2.133,6.784-5.688,6.077-11.283c-0.082-0.649,0.308-1.359,0.478-2.041
		c0.484,0.478,1.137,0.87,1.423,1.447c1.066,2.145,2.382,3.609,4.817,1.859c0.672-0.482,0.971-1.486,1.441-2.252
		c-0.76-0.453-1.48-1.01-2.295-1.322c-0.517-0.199-1.175-0.037-2.06-0.037c-0.158-1.069-0.312-2.102-0.475-3.201
		c2.33-1.308,6.075,0.939,7.443-3.212c-1.097-0.21-1.926-0.354-2.75-0.528c-1.794-0.383-2.49-1.363-2.044-3.26
		c0.284-1.204,0.192-2.496,0.283-3.984c3.257-1.037,5.064,1.607,6.948,3.596c2.524-0.523,3.13-1.768,2.257-3.944
		c-0.887-2.214-1.586-4.501-2.496-7.131c2.527-1.157,4.284-3.954,7.978-2.654c1.885,0.665,3.568-1.687,3.344-4.565
		c-0.194-2.496-1.398-4.783-0.195-7.514c1-2.273,0.98-4.995,1.546-8.306c0.658,1.372,1.381,2.212,1.427,3.089
		c0.214,4.062,0.194,8.138,0.374,12.203c0.038,0.861,0.563,1.7,0.864,2.55c0.797-0.492,1.877-0.798,2.341-1.507
		c1.764-2.691,3.425-5.248,3.07-8.967c-0.218-2.291,1.172-5.164,2.699-7.098c2.954-3.742,2.873-8.299,4.273-12.438
		c0.274-0.812,0.474-1.648,0.745-2.459c0.537-1.604,0.613-2.91-1.01-4.162c-2.419-1.861-2.455-2.354-1.776-5.394
		c1.666,1.978,3.058,3.628,4.449,5.278c0.175-0.084,0.35-0.169,0.525-0.254c-0.834-2.486-2.08-4.922-2.393-7.474
		c-0.351-2.86-0.511-6.053,0.413-8.692c1.506-4.303,5.106-5.305,9.291-3.422c4.444,1.996,6.438,1.081,7.979-3.416
		c0.541-1.576,1.2-3.373,2.381-4.42c2.778-2.463,2.994-5.412,1.843-8.393c-2.018-5.229-0.003-9.715,1.921-14.313
		c0.904-2.159,1.717-4.356,2.549-6.478c0.425-0.381,1.277-0.764,1.408-1.318c0.545-2.316,0.818-4.696,1.311-7.028
		c0.189-0.904,0.661-1.759,1.069-2.604c1.105-2.281,3.135-4.529,3.176-6.818c0.07-3.867,1.875-6.077,4.727-7.939
		c1.789-1.169,2.942-2.513,3.964-4.626c2.389-4.947,3.379-10.096,4.29-15.382c0.566-3.293,1.344-6.614,2.562-9.713
		c1.256-3.189,2.586-6.229,2.261-9.778c-0.075-0.813,0.403-2.103,1.043-2.491c5.319-3.231,6.478-8.212,6.296-13.817
		c3.759-3.144,6.133-7.215,7.725-11.839c0.721-2.096,1.688-4.109,2.457-6.19c0.279-0.752,0.41-1.593,0.433-2.4
		c0.06-2.08,0.021-4.163,0.021-7.188c1.604,1.212,2.762,2.088,4.066,3.077c0.182-0.372,0.65-0.929,0.713-1.53
		c0.453-4.234,5.08-5.181,6.734-8.5c0.148-0.298,2.012-0.096,2.803,0.356c1.422,0.812,2.213,0.83,3.112-0.731
		c1.008-1.753,2.221-3.459,3.667-4.852c0.604-0.583,2.037-0.306,3.092-0.419c-0.041,1.157,0.372,2.95-0.202,3.36
		c-2.196,1.565-3.591,3.388-4.477,5.993c-0.762,2.242-1.835,4.046,0.964,5.553c0.398,0.214,0.406,1.154,0.595,1.759
		c-0.687-0.009-1.456,0.169-2.036-0.085c-0.467-0.207-0.706-0.933-1.232-1.697c-1.221,1.063-2.4,1.651-2.896,2.598
		c-2.121,4.06-5.479,7.276-6.864,11.938c-1.221,4.101-1.875,9.015-5.918,11.62c-3.668,2.363-4.649,5.986-5.658,9.675
		c-0.381,1.389-0.52,3.082-0.087,4.412c1.458,4.478-0.464,7.481-3.577,10.386c-1.156,1.079-1.865,2.902-2.229,4.511
		c-0.894,3.946-1.526,7.954-2.147,11.956c-0.268,1.738-0.384,3.527-0.325,5.286c0.165,4.905-0.796,9.398-5.099,13.723
		c2.662-0.264,4.457-0.442,6.818-0.676c-3.419,3.653-6.489,7.085-9.734,10.343c-1.951,1.959-2.941,4.031-2.838,6.887
		c0.197,5.48,0.057,10.972,0.057,16.645c0.398,0.043,1.135,0.119,2.001,0.211c-0.196,0.336-0.319,0.58-0.474,0.805
		c-2.32,3.412-4.169,7.324-7.103,10.087c-2.932,2.76-2.03,5.548-1.571,8.373c0.795,4.89-2.187,8.286-4.116,12.144
		c-1.023,2.049-1.861,4.191-2.827,6.396c5.495,2.122,6.817-3.901,11.718-4.081c-0.923,1.219-1.363,2.047-2.03,2.604
		c-0.569,0.476-1.764,0.441-2.053,0.975c-1.57,2.893-4.754,3.257-7.191,4.71c-2.8,1.67-3.059,3.773-0.846,6.231
		c0.8,0.888,1.048,3.324,0.398,4.217c-0.891,1.225-3.001,2.445-4.364,2.234c-2.005-0.313-0.967-1.738,0.02-2.807
		c0.632-0.682,0.962-1.644,1.428-2.481c-1.016,0.011-2.129-0.249-3.03,0.077c-3.188,1.159-4.629,4.238-4.397,8.91
		c3.475,1.449,3.529,1.938,0.604,4.316c-0.767,0.624-1.688,1.305-1.997,2.156c-0.197,0.543,0.418,1.688,1,2.121
		c0.537,0.402,1.607,0.48,2.275,0.237c1.265-0.462,2.4-2.083,3.83,0.095c-1.162,1.004-2.263,1.936-3.342,2.893
		c-1.261,1.117-2.2,1.51-3.754-0.005c-1.153-1.124-3.188-1.347-5.438-2.202c0.18,1.303,0.27,1.99,0.371,2.676
		c0.395,2.667,0.321,4.891-0.859,7.768c-2.263,5.517-8.871,8.074-8.554,14.635c1.317,1.543,2.577,4.001,4.579,5.066
		c1.675,0.892,3.222,1.361,3.983,3.287c1.025,2.592-0.713,5.637-3.478,5.854c-5.576,0.438-7.763-0.087-12.349-3.09
		c0.786,4.783-3.556,6.314-5.565,9.308c-1.047,1.56-2.186,2.515-1.103,4.677c0.801,1.598,0.972,3.668,0.863,5.496
		c-0.05,0.86-1.271,1.949-2.216,2.4c-2.695,1.284-4.587,4.586-2.679,6.674c2.583,2.822,1.597,5.702,1.792,8.639
		c0.02,0.295,0.036,0.592,0.059,0.969c-6.367,3.281-4.257,8.98-4.067,14.436c-2.659,1.687-5.52,3.475-8.351,5.309
		c-1.422,0.922-2.904,1.801-4.162,2.918c-3.918,3.48-4.125,6.092-0.474,9.803c0.943,0.959,2.826,0.995,4.633,1.566
		c-0.503,1.48-1.08,3.25-1.704,5.002c-1.108,3.113-2.188,6.239-3.396,9.312c-0.513,1.307-1.143,2.646-2.035,3.705
		c-2.101,2.492-1.667,4.775,1.149,6.357c1.113,0.625,2.841,2.357,2.643,2.742c-0.95,1.855,0.532,5.676-3.669,5.176
		c-0.096-0.012-0.245-0.016-0.291,0.041c-2.079,2.604-4.163,5.205-6.141,7.883c-0.048,0.066,1.055,1.076,1.701,1.531
		c0.693,0.486,1.794,0.651,2.171,1.283c1.175,1.967,2.093,4.088,3.271,6.479c-0.684,0.535-1.72,1.887-2.994,2.17
		c-1.007,0.223-2.626-0.578-3.412-1.438c-1.901-2.078-3.508-2.276-4.755,0.164c-1.364,2.666-3.139,3.539-6.054,2.83
		c-1.146-0.277-2.494,0.281-3.75,0.453c-2.308,0.314-4.642,0.502-6.916,0.979c-1.521,0.317-2.921,1.194-4.44,1.536
		c-1.14,0.257-2.383,0.058-3.58,0.061c0.133-1.156-0.04-2.47,0.456-3.442c1.704-3.339,1.777-3.315-2.086-3.716
		c-2.577-0.269-4.322-1.523-5.438-3.969c-0.553-1.21-1.668-2.438-2.845-3.039c-3.825-1.957-4.815-4-3.523-8.166
		c0.142-0.458,0.269-1.047,0.105-1.455c-1.27-3.184-2.601-6.344-3.945-9.496c-0.312-0.73-0.745-1.408-1.127-2.107
		c-1.651-3.023-3.29-6.053-4.963-9.062c-0.763-1.373-1.593-2.711-2.393-4.062C154.535,710.589,154.761,710.332,154.988,710.072z"/>
	<path fill="#BD2331" d="M118.119,706.458c-0.588-0.642-1.271-1.232-1.765-1.951c-2.18-3.173-0.656-6.418,3.154-6.674
		c1.689-0.114,3.393-0.02,4.842,0.516c1.599,0.881,3.212,1.736,4.792,2.648c1.194,0.689,2.281,1.607,3.537,2.133
		c0.998,0.416,2.389,0.835,3.22,0.439c0.841-0.4,1.745-1.836,1.681-2.751c-0.182-2.569,0.59-4.526,3.141-4.802
		c2.398-0.262,4.306,0.99,5.121,3.565c1.583,4.995,0.973,5.985-4.893,7.481c0.463,2.771,1.479,3.432,4.25,2.512
		c1.874-0.621,3.675-1.463,6.317-2.535c-0.18,1.715-0.249,2.869-0.431,4.006c-0.323,2.013-0.396,3.705,2.292,4.228
		c0.74,0.144,1.72,1.454,1.736,2.244c0.015,0.771-0.94,1.72-1.688,2.313c-1.741,1.377-3.557,2.685-5.463,3.816
		c-0.795,0.471-1.927,0.668-2.86,0.564c-3.054-0.337-6.078-0.934-9.128-1.315c-5.756-0.722-9.551-4.272-12.462-8.859
		c-0.578-0.911,0.083-2.604,0.16-3.937c0.072-1.25,0.636-2.838,0.08-3.682c-1.019-1.543-2.756-1.803-4.396-0.436
		C119.072,706.224,118.629,706.271,118.119,706.458z"/>
	<path fill="#BD2331" d="M243.284,466.194c-2.982-0.186-5.448-0.395-7.916-0.48c-3.565-0.122-6.706-4.954-5.339-8.362
		c0.33-0.821,0.697-1.77,1.344-2.297c2.059-1.679,3.853-3.293,2.093-6.265c-0.085-0.143,1.086-1.378,1.812-1.569
		c1.098-0.291,2.538,0.284,3.444-0.213c1.763-0.967,2.707-0.333,3.242,1.16c0.664,1.851,1.043,3.803,1.619,5.992
		c3.999-0.698,7.929-1.444,11.883-2.041c1.399-0.211,3.149-0.557,4.202,0.065c1.089,0.644-0.431,5.173-1.977,5.867
		c-2.994,1.343-5.99,2.956-9.157,3.562C245.389,462.215,244.257,464.413,243.284,466.194z"/>
	<path fill="#BD2331" d="M461.406,203.208c-0.23,1.246-0.197,2.571-0.719,3.619c-2.451,4.936-5.055,9.794-7.603,14.682
		c-0.138,0.265-0.19,0.693-0.401,0.787c-4.646,2.081-2.537,6.85-4.049,10.168c-0.234,0.516-0.025,1.441-0.363,1.671
		c-4.269,2.895-5.404,7.837-7.998,11.825c-1.721,2.641-4.15,4.833-6.359,7.131c-0.432,0.449-1.582,0.842-1.926,0.597
		c-0.607-0.435-1.102-1.348-1.198-2.116c-0.313-2.504,0.258-4.746,2.487-6.312c1.213-0.852,1.749-1.811,1.187-3.484
		c-0.89-2.647,1.705-7.57,4.374-8.258c1.849-0.475,2.928-1.167,3.398-3.125c0.24-1.003,1.503-1.716,2.037-2.705
		c0.512-0.953,1.137-2.199,0.92-3.131c-0.945-4.063,0.201-6.952,4.018-8.646c4.215-1.869,7.236-4.289,7.037-9.588
		C456.16,204.032,458.206,202.809,461.406,203.208z"/>
	<path fill="#BD2331" d="M378.867,337.194c-2.479,3.736-5.801,7.183-7.201,11.287c-1.455,4.268-5.643,5.991-7.121,9.855
		c-1.056,2.756-1.98,5.562-2.965,8.345c-0.133,0.375-0.184,0.837-0.438,1.102c-2.273,2.38-4.514,4.803-6.94,7.021
		c-0.539,0.491-2.136,0.627-2.599,0.21c-0.686-0.617-0.932-1.854-1.096-2.87c-0.1-0.618,0.141-1.436,0.513-1.962
		c2.333-3.302,3.199-7.579,6.921-10.002c0.984-0.641,1.258-2.291,2.038-3.344c1.257-1.692,2.675-3.263,3.999-4.906
		c0.466-0.578,1.362-1.476,1.203-1.784c-1.493-2.888,0.689-3.526,2.424-4.88c1.773-1.383,2.842-3.636,4.509-5.2
		c1.681-1.575,3.716-2.771,5.597-4.132C378.096,336.353,378.482,336.773,378.867,337.194z"/>
	<path fill="#BD2331" d="M180.863,620.062c-0.31-2.095-0.589-4.193-0.936-6.283c-0.317-1.91,0.283-4.6-3.229-3.977
		c-0.276,0.049-0.87-0.326-0.923-0.586c-0.666-3.203-1.335-6.41-1.801-9.647c-0.088-0.614,0.532-1.664,1.116-1.985
		c2.366-1.299,2.621-3.455,2.941-5.778c0.147-1.069,0.831-2.411,1.693-2.938c0.868-0.53,2.26-0.205,3.421-0.256
		c-0.061,1.029,0.281,2.4-0.254,3.024c-1.828,2.133-2.586,4.345-1.033,6.78c0.787,1.236,2.015,2.299,3.258,3.113
		c2.575,1.689,2.987,3.373,0.361,4.629c-4.062,1.941-3.632,5.094-3.385,8.486c0.127,1.738,0.022,3.492,0.022,5.239
		C181.699,619.945,181.281,620.003,180.863,620.062z"/>
	<path fill="#BD2331" d="M271.715,600.835c4.389,5.135,8.553,10.004,12.737,14.896c0.416-0.211,0.688-0.307,0.915-0.469
		c1.054-0.756,2.111-2.197,3.135-2.171c2.669,0.069,4.833,1.497,5.243,4.386c0.146,1.025-0.3,2.921-0.905,3.123
		c-1.954,0.647-4.263,1.279-6.138,0.785c-1.592-0.416-2.9-2.293-4.11-3.715c-2.697-3.174-5.243-6.478-7.876-9.707
		c-0.559-0.685-1.114-1.487-1.858-1.88C270.686,604.941,270.538,603.367,271.715,600.835z"/>
	<path fill="#BD2331" d="M294.562,579.72c2.387,3.234-1.781,3.68-2.549,5.807c0.973,0.547,1.86,1.043,3.162,1.777
		c-2.688,1.68-4.959,3.49-7.536,4.551c-1.385,0.571-3.299-0.148-4.974-0.287c0.264-1.762-0.102-4.148,0.91-5.166
		C286.576,583.38,289.455,579.812,294.562,579.72z"/>
	<path fill="#BD2331" d="M149.051,776.412c0,0.596,0.137,1.232-0.026,1.78c-0.467,1.562,0.697,4.071-2.483,4.107
		c-3.613,0.04-5.364-1.081-5.681-4.101c-0.165-1.566-0.245-3.174-0.098-4.738c0.222-2.365,2.19-3.834,4.691-3.688
		c2.665,0.154,3.103,2.375,3.747,4.275c0.236,0.695-0.049,1.57-0.096,2.363C149.087,776.412,149.069,776.412,149.051,776.412z"/>
	<path fill="#BD2331" d="M170.884,692.745c-0.38-0.958-0.824-1.894-1.124-2.877c-0.602-1.966-0.75-4.062-3.691-4.339
		c-0.555-0.053-1.175-3.056-1.103-4.668c0.039-0.893,1.353-1.854,2.271-2.547c1.085-0.815,2.312-1.504,3.575-1.996
		c0.779-0.305,2.038-0.531,2.562-0.125c1.677,1.303,2.186,5.92,0.978,7.545c-0.294,0.396-0.971,0.631-1.504,0.704
		c-2.561,0.352-2.668,1.852-1.99,3.873c0.453,1.351,0.755,2.753,1.124,4.132C171.617,692.545,171.25,692.645,170.884,692.745z"/>
	<path fill="#BD2331" d="M165.63,668.961c-1.35-1.534-2.434-2.467-3.14-3.63c-1.575-2.594-3.057-5.188-2.603-8.525
		c0.425-3.12,1.426-3.889,4.456-2.664c4.374,1.768,5.026,4.765,2.379,8.479C165.789,663.929,166.07,666.101,165.63,668.961z"/>
	<path fill="#BD2331" d="M179.669,642.162c-1.14-1.425-2.586-2.825-3.532-4.508c-1.272-2.266,0.523-6.271,2.938-7.153
		c3.577-1.308,5.485-0.234,5.041,3.489C183.771,636.884,184.092,640.533,179.669,642.162z"/>
	<path fill="#BD2331" d="M250.873,445.185c0.129-1.383,0.293-2.646,0.354-3.914c0.165-3.406,1.723-5.056,5.072-5.196
		c0.536-0.022,1.178,0.127,1.611,0.428c1.86,1.292,2.012,5.281,0.294,8.196c-1.241,2.104-3.081,2.269-5.167,1.373
		C252.326,445.765,251.602,445.483,250.873,445.185z"/>
	<path fill="#BD2331" d="M185.493,589.544c-1.077-2.264-2.258-4.425-3.143-6.701c-0.788-2.027,1.973-7.275,4.031-8.061
		c1.993-0.762,4.593,2.279,3.691,4.957C188.938,583.104,187.082,586.226,185.493,589.544z"/>
	<path fill="#BD2331" d="M262.501,616.398c3-0.799,3.627,0.503,3.208,3.316c-0.176,1.18,0.837,2.492,1.034,3.787
		c0.135,0.882-0.208,1.836-0.337,2.758c-0.893-0.346-1.838-0.602-2.667-1.064c-0.839-0.467-1.484-1.403-2.356-1.67
		c-2.062-0.633-4.29-1.374-3.843-3.879C257.952,617.328,259.472,615.419,262.501,616.398z"/>
	<path fill="#BD2331" d="M216.605,752.103c4.059-0.313,7.459-0.861,10.825-0.699c1.373,0.066,2.936,1.446,3.936,2.631
		c1.15,1.363,0.373,3.191-1.287,2.929c-4.047-0.638-8.006-1.862-11.979-2.927C217.729,753.937,217.504,753.298,216.605,752.103z"/>
	<path fill="#BD2331" d="M153.552,670.664c1.041,1.887,2.271,3.753,3.129,5.777c0.65,1.538,0.55,3.164-1.456,3.894
		c-1.852,0.673-3.504,0.563-4.727-1.206C148.047,675.585,148.95,672.682,153.552,670.664z"/>
	<path fill="#BD2331" d="M267.382,447.765c1.732,0.962,3.232,1.793,5.093,2.825c-2.569,2.152-5.09,4.265-7.662,6.419
		C261.452,451.02,261.85,449.858,267.382,447.765z"/>
	<path fill="#BD2331" d="M286.978,439.56c0.245-4.016,1.29-7.193,6.002-7.136c1.197,2.261,1.186,6.385-0.023,7.389
		C290.833,441.58,289.423,441.528,286.978,439.56z"/>
	<path fill="#BD2331" d="M229.066,581.569c-0.118-1.858,0.459-3.126,2.8-3.021c2.815,0.129,5.245,1.611,4.649,3.354
		c-0.469,1.371-2.043,3.129-3.321,3.305C230.099,585.634,229.049,584.412,229.066,581.569z"/>
	<path fill="#BD2331" d="M202.687,629c-0.317-3.547-0.635-7.094-0.949-10.596c4.439-0.912,6.206,0.934,4.887,4.674
		c-0.624,1.769-1.46,3.465-2.239,5.176c-0.15,0.33-0.484,0.574-0.734,0.857C203.329,629.074,203.007,629.037,202.687,629z"/>
	<path fill="#BD2331" d="M202.664,772.831c0.304-1.544,0.38-3.329,2.878-3.111c2.165,0.19,5.39,2.754,4.864,4.365
		c-0.343,1.052-1.777,2.379-2.807,2.456C204.524,776.773,202.613,775.13,202.664,772.831z"/>
	<path fill="#BD2331" d="M155.102,661.617c3.335-0.064,4.564,1.297,4.329,4.348c-0.064,0.835-1.29,2.142-2.116,2.254
		c-2.88,0.395-3.373-1.943-3.461-4.012C153.811,663.234,154.79,662.218,155.102,661.617z"/>
	<path fill="#BD2331" d="M181.449,567.75c1.013,1.57,2.293,3.05,2.877,4.767c0.174,0.513-1.755,2.511-2.449,2.38
		c-1.302-0.244-3.104-1.354-3.407-2.456c-0.344-1.253,0.728-2.892,1.185-4.364C180.252,567.966,180.85,567.858,181.449,567.75z"/>
	<path fill="#BD2331" d="M284.473,438.239c-0.51,1.758-0.827,3.618-1.665,5.204c-0.212,0.402-2.492,0.351-3.082-0.236
		c-0.84-0.837-1.689-3.105-1.316-3.454c1.279-1.192,3.09-1.813,4.699-2.653C283.563,437.48,284.018,437.86,284.473,438.239z"/>
	<path fill="#BD2331" d="M176.896,646.177c1.318,3.015,2.371,5.285,3.249,7.617c0.103,0.273-0.737,1.275-1.182,1.305
		c-0.974,0.063-2.542,0.034-2.849-0.52c-0.651-1.178-0.903-2.728-0.842-4.104C175.321,649.359,176.065,648.273,176.896,646.177z"/>
	<path fill="#BD2331" d="M124.948,667.101c-0.452-0.826-0.903-1.652-1.356-2.479c0.23-0.357,0.46-0.715,0.688-1.072
		c1.408,0.422,3.255,0.454,4.083,1.389c0.643,0.727,0.167,2.615-0.136,3.911c-0.097,0.415-1.226,0.589-1.883,0.876
		c-0.295-0.885-0.59-1.77-0.886-2.652C125.288,667.083,125.118,667.091,124.948,667.101z"/>
	<path fill="#BD2331" d="M281.451,605.312c1.512-0.23,2.549-0.47,3.596-0.521c0.772-0.036,1.557,0.172,2.336,0.27
		c-0.394,0.979-0.55,2.205-1.245,2.867c-0.766,0.729-2.01,1.199-3.08,1.271c-0.644,0.043-1.692-0.762-1.94-1.42
		C280.852,607.08,281.314,606.105,281.451,605.312z"/>
	<path fill="#BD2331" d="M254.99,643.681c-1.313,1.25-2.589,2.883-2.925,2.707c-1.177-0.612-2.538-1.723-2.821-2.891
		c-0.177-0.729,1.456-1.896,2.278-2.867C252.529,641.516,253.537,642.404,254.99,643.681z"/>
	<path fill="#BD2331" d="M155.001,768.331c-0.891-1.254-2.017-2.42-2.534-3.812c-0.166-0.445,1.699-2.253,1.914-2.135
		c1.148,0.635,2.484,1.52,2.923,2.645c0.308,0.785-0.719,2.092-1.15,3.168C155.77,768.242,155.385,768.287,155.001,768.331z"/>
	<path fill="#BD2331" d="M150.126,805.854c0.624,1.333,1.325,2.238,1.432,3.211c0.124,1.126-0.273,2.312-0.444,3.469
		c-0.888-0.205-2.334-0.167-2.55-0.662c-0.526-1.213-0.699-2.692-0.57-4.021C148.053,807.234,149.153,806.722,150.126,805.854z"/>
	<path fill="#BD2331" d="M261.462,401.465c-2.137-1.948-2.923-5.303-1.773-6.653c0.428-0.502,1.411-0.796,2.093-0.727
		c0.458,0.046,1.249,0.972,1.178,1.377C262.621,397.387,262.037,399.268,261.462,401.465z"/>
	<path fill="#BD2331" d="M214.346,777.111c-0.85-1.393-2.059-2.537-1.835-3.195c0.391-1.152,1.663-2.004,2.565-2.98
		c0.806,0.822,2.428,1.938,2.258,2.41C216.886,774.593,215.661,775.561,214.346,777.111z"/>
	<path fill="#BD2331" d="M264.155,383.574c1.702-0.508,3.537-2.669,5.224-0.141c0.559,0.838-0.083,2.478-0.222,4.398
		C267.032,386.021,265.705,384.893,264.155,383.574z"/>
	<path fill="#BD2331" d="M357.884,356.474c-1.342-1.632-2.662-2.538-2.617-3.37c0.051-0.941,1.326-1.816,2.069-2.72
		c0.718,0.819,1.825,1.55,2.034,2.484C359.546,353.654,358.679,354.674,357.884,356.474z"/>
	<path fill="#BD2331" d="M169.046,628.004c1.178,1.761,2.263,2.747,2.419,3.862c0.089,0.639-1.331,1.488-2.072,2.244
		c-0.72-1.043-1.666-2.01-2.057-3.165C167.163,630.433,168.109,629.542,169.046,628.004z"/>
	<path fill="#BD2331" d="M296.141,436.94c0.995-1.857,1.989-3.713,3.128-5.835c2.521,2.999,1.607,5.008-2.1,6.362
		C296.827,437.292,296.484,437.116,296.141,436.94z"/>
	<path fill="#BD2331" d="M205.096,570.249c1.074,0.228,1.987,0.19,2.562,0.615c0.443,0.327,0.459,1.233,0.665,1.88
		c-1.919,0.177-3.838,0.396-5.761,0.445c-0.142,0.004-0.582-1.707-0.432-1.787C203.115,570.865,204.226,570.559,205.096,570.249z"/>
	<path fill="#BD2331" d="M315.939,383.462c0.178-1.925,0.355-3.852,0.545-5.913C320.613,378.936,320.554,380.133,315.939,383.462z"
		/>
	<path fill="#BD2331" d="M311.019,397.458c-0.369,1.092-0.423,2.689-1.179,3.16c-1.181,0.735-2.835,0.706-4.288,1.001
		c-0.1-0.32-0.197-0.64-0.297-0.96c1.625-1.262,3.252-2.524,4.877-3.786C310.427,397.068,310.724,397.263,311.019,397.458z"/>
	<path fill="#BD2331" d="M266.922,389.689c1.717,2.425,0.058,3.794-1.01,5.217c-0.181,0.241-1.474,0.013-1.477-0.033
		c-0.055-1.227-0.257-2.542,0.118-3.656C264.769,390.583,265.955,390.277,266.922,389.689z"/>
	<path fill="#BD2331" d="M148.501,641.568c1.186,0.934,2.035,1.602,2.884,2.271c-0.677,0.729-1.355,1.459-2.032,2.189
		c-0.747-0.814-1.62-1.557-2.161-2.49C147.045,643.285,147.892,642.454,148.501,641.568z"/>
	<path fill="#BD2331" d="M137.486,670.116c1.081,0.773,2.162,1.546,3.244,2.319c-0.496,0.627-0.992,1.252-1.488,1.879
		c-1.016-0.899-2.032-1.797-3.048-2.695C136.624,671.118,137.054,670.617,137.486,670.116z"/>
	<path fill="#BD2331" d="M143.338,619.724c-1.205,0.863-1.906,1.68-2.243,1.549c-0.978-0.376-1.809-1.132-2.697-1.738
		c0.58-0.601,1.226-1.746,1.726-1.685C141.026,617.96,141.84,618.791,143.338,619.724z"/>
	<path fill="#BD2331" d="M282.076,602.761c-3.39-1.424-3.838-3.691-1.144-5.988C281.332,598.869,281.668,600.628,282.076,602.761z"
		/>
	<path fill="#BD2331" d="M134.708,683.851c2.862-1.773,3.643-1.513,4.31,1.438C136.968,686.613,135.385,686.697,134.708,683.851z"/>
	<path fill="#BD2331" d="M163.677,762.876c-1.07,0.969-1.72,1.557-2.367,2.144c-0.623-0.794-1.6-1.53-1.742-2.402
		c-0.092-0.575,1.019-1.345,1.59-2.027C161.877,761.244,162.597,761.894,163.677,762.876z"/>
	<path fill="#BD2331" d="M187.383,625.583c-0.235-1.432-0.47-2.865-0.707-4.299c0.741,0.031,2.112-0.006,2.125,0.104
		c0.147,1.358,0.096,2.739,0.096,4.113C188.393,625.531,187.888,625.556,187.383,625.583z"/>
	<path fill="#BD2331" d="M279.84,382.499c-0.623,1.785-0.975,2.996-1.529,4.106c-0.063,0.126-1.781-0.203-1.849-0.513
		C276.094,384.417,276.357,382.905,279.84,382.499z"/>
	<path fill="#BD2331" d="M164.854,615.978c-0.86,1.468-1.466,2.506-2.074,3.541c-0.523-0.568-1.36-1.065-1.511-1.721
		C160.818,615.849,161.874,615.292,164.854,615.978z"/>
	<path fill="#BD2331" d="M158.648,690.863c-0.094-1.297-0.188-2.592-0.281-3.887c0.917,0.097,1.833,0.193,2.75,0.291
		c-0.286,1.247-0.57,2.494-0.855,3.74C159.725,690.96,159.186,690.911,158.648,690.863z"/>
	<path fill="#BD2331" d="M128.162,679.142c0.664-1.564,1.138-2.68,1.61-3.793c0.604,0.471,1.532,0.822,1.75,1.432
		C132.196,678.658,131.137,679.298,128.162,679.142z"/>
	<path fill="#BD2331" d="M144.992,658.253c-0.9-1.293-1.697-1.977-1.795-2.748c-0.062-0.479,0.937-1.093,1.459-1.646
		c0.554,0.712,1.299,1.357,1.582,2.165C146.376,656.419,145.66,657.117,144.992,658.253z"/>
	<path fill="#BD2331" d="M141.275,631.033c-0.594-1.213-1.188-2.425-1.847-3.771C142.458,626.9,142.839,627.501,141.275,631.033z"/>
</g>
</svg>
