<?xml version="1.0" encoding="utf-8"?>
<!-- Generator: Adobe Illustrator 16.0.0, SVG Export Plug-In . SVG Version: 6.00 Build 0)  -->
<!DOCTYPE svg PUBLIC "-//W3C//DTD SVG 1.1//EN" "http://www.w3.org/Graphics/SVG/1.1/DTD/svg11.dtd">
<svg version="1.1" id="Layer_1" xmlns="http://www.w3.org/2000/svg" xmlns:xlink="http://www.w3.org/1999/xlink" x="0px" y="0px"
	 width="372.979px" height="666.346px" viewBox="0 0 372.979 666.346" enable-background="new 0 0 372.979 666.346"
	 xml:space="preserve">
<g>
	<path fill="#BD2331" d="M183.402,372.419c-5.153,1.648-4.729,6.794-6.936,10.304c-0.715,1.138-1.49,2.42-2.574,3.102
		c-2.176,1.37-2.397,3.022-1.388,5.091c0.698,1.434,1.485,2.825,2.264,4.219c1.262,2.258,1.766,4.26-1.39,5.434
		c-0.699,0.261-1.237,0.953-1.881,1.473c0.856,1.709,1.824,3.252,2.396,4.93c0.354,1.032,0.105,2.272,0.128,3.419
		c-0.99-0.276-1.98-0.552-3.297-0.918c0.025-0.029-0.41,0.281-0.564,0.695c-1.577,4.233-4.683,5.399-8.585,3.22
		c-2.309-1.288-4.644-2.529-6.979-3.77c-2.852-1.516-2.762-4.208-2.113-6.822c1.334-5.375,6.446-7.962,8.236-12.786
		c0.347-0.936,0.649-2.237,0.268-3.029c-1.253-2.598,0.248-3.261,2.235-3.617c5.208-0.938,5.942-2.214,4.056-7.276
		c-1.952-5.239-1.483-6.088,3.348-9.035c3.172-1.936,6.03-4.386,9.17-6.709c-0.319-0.172-0.763-0.607-1.226-0.627
		c-8.511-0.36-11.369-10.43-7.548-16.031c1.381-2.023,1.436-3.438,0.076-5.233c-0.477-0.63-0.806-1.378-1.159-2.094
		c-0.825-1.673-0.586-2.659,1.513-3.127c5.756-1.284,8.229-0.227,11.217,5.022c0.535,0.938,1.267,1.797,2.033,2.568
		c3.586,3.62,7.178,7.237,10.849,10.77c1.655,1.592,1.74,3.51-0.296,4.568c-4.092,2.127-8.252,4.143-12.485,5.964
		c-2.736,1.177-1.93,3.2-1.486,5.027C181.701,368.856,182.587,370.446,183.402,372.419z"/>
	<path fill="#BD2331" d="M210.664,280.242c3.163,1.671,4.441,6.819,2.012,9.718c-1.687,2.013-3.513,3.634-1.769,6.742
		c0.504,0.9-0.537,3.199-1.513,4.271c-1.343,1.474-2.51,0.115-3.706-0.941c-0.566-0.499-1.926-0.074-2.922-0.12
		c-0.984-0.046-1.965-0.161-2.947-0.244c0.462-1.193,0.711-2.546,1.457-3.522c0.518-0.679,1.715-0.838,2.978-1.391
		c-0.903-1.725-1.727-3.297-2.754-5.261c-1.57,1.738-2.505,3.245-3.851,4.122c-1.213,0.79-2.979,1.402-4.307,1.131
		c-1.033-0.211-2.463-1.925-2.426-2.924c0.035-0.939,1.688-1.915,2.758-2.695c1.438-1.047,3.029-1.88,4.502-2.88
		c1.945-1.32,0.812-3.298,1.145-4.95c0.57-2.839,1.979-5.674,3.66-8.071c1.129-1.608,2.625-0.153,3.077,1.229
		c0.519,1.585,0.448,3.354,0.878,4.979c0.281,1.066,0.99,2.02,1.508,3.024C209.158,281.745,209.874,281.031,210.664,280.242z"/>
	<path fill="#BD2331" d="M192.104,471.474c-0.273-1.091-0.511-2.035-0.805-3.204c-3.42,1.235-4.344-1.534-4.947-3.546
		c-0.374-1.246,0.625-3.327,1.641-4.474c1.838-2.074,3.145-4.031,2.174-6.121c1.189-1.786,2.066-3.14,2.982-4.467
		c0.422-0.612,0.916-1.173,1.377-1.758c0.541,0.603,1.332,1.115,1.58,1.82c1.436,4.089,2.924,8.174,4.035,12.356
		C201.085,465.636,197.108,470.21,192.104,471.474z"/>
	<path fill="#BD2331" d="M189.019,313.509c-1.78,0.626-3.352,1.178-4.963,1.745c-1.994-2.487-0.748-4.948-0.285-7.26
		c0.093-0.462,1.808-0.79,2.786-0.817c0.661-0.019,1.341,0.596,2.743,1.287c-0.583-1.84-1.125-2.98-1.271-4.17
		c-0.156-1.26-0.237-2.679,0.192-3.825c0.594-1.579,1.621-1.775,2.816-0.186c2.32,3.085,4.736,6.104,7.24,9.041
		c1.596,1.872,2.208,3.933,1.047,6.031c-1.35,2.44-3.463,4.189-6.49,4.038c-0.588-0.029-1.314-0.781-1.662-1.382
		C190.386,316.644,189.794,315.165,189.019,313.509z"/>
	<path fill="#BD2331" d="M235.882,243.41c2.122-2.855,5.104-3.766,8.233-2.825c2.839,0.854,5.514,2.387,8.114,3.876
		c2.504,1.436,2.26,3.8,1.318,6.077c-0.919,2.218-2.568,2.689-4.898,2.067c-2.041-0.546-4.213-0.633-6.334-0.848
		C239.849,251.508,236.554,247.243,235.882,243.41z"/>
	<path fill="#BD2331" d="M234.356,252.708c1.129,0.657,2.106,1.125,2.973,1.75c1.555,1.122,2.996,2.077,4.68,0.125
		c0.279-0.324,1.65-0.3,1.777-0.054c0.416,0.803,0.926,1.992,0.609,2.652c-0.767,1.593-1.836,3.107-3.049,4.405
		c-1.811,1.941-3.814,3.71-5.801,5.48c-2.095,1.868-5.121,0.723-5.666-2.149c-0.35-1.847-0.646-3.718-0.747-5.589
		c-0.036-0.665,0.403-1.575,0.929-2c0.814-0.659,2.086-0.803,2.795-1.526C233.556,255.091,233.796,253.93,234.356,252.708z"/>
	<path fill="#BD2331" d="M229.713,276.623c-0.913,1.434-1.511,3.521-2.61,3.833c-1.788,0.506-3.961,0.071-5.871-0.382
		c-1.527-0.361-2.971-1.239-4.328-2.086c-0.846-0.527-2.205-1.756-2.053-2.095c0.65-1.445,1.608-2.857,2.771-3.939
		c1.488-1.387,3.652-2.161,4.855-3.717c1.619-2.091,3.051-1.158,3.775,0.116C227.642,270.794,228.472,273.553,229.713,276.623z"/>
	<path fill="#BD2331" d="M208.31,322.621c0.634,0.293,2.6,0.562,3.217,1.618c1.405,2.403,0.141,4.333-2.436,5.406
		c0.336,1.163,0.636,2.193,0.935,3.222c0.513,1.773,1.04,3.725-1.142,4.613c-1.109,0.454-3.482,0.468-3.69-0.012
		c-0.761-1.745-1.505-3.962-1.042-5.671C204.954,328.838,206.661,326.121,208.31,322.621z"/>
	<path fill="#BD2331" d="M199.472,442.563c-0.09-3.088,0.959-4.539,3.291-4.563c2.514-0.028,4.259,1.819,4.338,4.593
		c0.084,2.997-1.016,4.289-3.658,4.299C200.897,446.901,199.556,445.438,199.472,442.563z"/>
	<path fill="#BD2331" d="M133.611,529.014c-1.061,1.221-2.234,2.74-3.63,4.017c-0.243,0.221-1.837-0.396-2.1-0.958
		c-0.763-1.631-1.734-3.495-1.548-5.146c0.174-1.547,1.409-3.492,2.75-4.252c1.487-0.84,2.953,0.299,3.3,2.291
		C132.585,526.121,133.058,527.229,133.611,529.014z"/>
	<path fill="#BD2331" d="M186.287,339.399c0.765-0.564,1.491-1.102,2.481-1.834c1.297,4.488,4.902,3.2,7.77,3.752
		c0.924,0.178,2.021,0.511,2.586,1.162c0.443,0.514,0.186,1.631,0.238,2.48c-0.933,0.021-1.869-0.013-2.794,0.084
		c-0.837,0.088-1.825,0.08-2.452,0.528c-2.115,1.513-3.023,0.597-4.062-1.366C189.167,342.528,187.7,341.157,186.287,339.399z"/>
	<path fill="#BD2331" d="M166.163,364.776c-0.981,0.569-2.319,1.533-3.806,2.109c-0.52,0.202-1.426-0.514-2.124-0.873
		c-0.812-0.419-1.699-0.788-2.355-1.394c-0.932-0.86-1.764-1.864-2.454-2.925c-0.173-0.266,0.227-1.195,0.608-1.441
		c0.344-0.22,1.161-0.1,1.527,0.182c1.738,1.342,3.352,1.856,5.598,0.828C164.928,360.45,166.456,362.026,166.163,364.776z"/>
	<path fill="#BD2331" d="M185.93,327.019c4.006,0.225,6.961,3.874,5.59,6.914c-0.342,0.754-1.707,1.588-2.504,1.5
		C185.488,335.038,184.237,331.563,185.93,327.019z"/>
	<path fill="#BD2331" d="M172.635,432.225c-1.317,1.212-2.455,2.909-4.008,3.487c-1.32,0.491-2.908-0.562-2.91-2.524
		c-0.002-3.21,1.706-6.319,3.446-6.124C171.89,427.367,171.767,429.623,172.635,432.225z"/>
	<path fill="#BD2331" d="M156.199,419.36c1.743,0.406,5.436,4.404,5.061,5.799c-0.262,0.974-1.331,2.401-2.08,2.428
		c-1.395,0.048-2.907-0.623-4.186-1.328c-0.447-0.246-0.618-1.541-0.449-2.245C154.907,422.501,155.573,421.061,156.199,419.36z"/>
	<path fill="#BD2331" d="M163.563,333.338c-0.482,0.466-1.307,1.835-2.462,2.226c-1.395,0.473-4.796-2.9-4.184-4.043
		c0.564-1.054,2.024-1.989,3.246-2.254C162.34,328.794,163.425,330.164,163.563,333.338z"/>
	<path fill="#BD2331" d="M295.456,142.994c-0.525-0.279-1.149-0.429-1.489-0.824c-1.131-1.312,0.243-8.225,1.856-8.848
		c0.58-0.225,2.062,0.301,2.17,0.729c0.354,1.397,0.493,4.153,0.312,4.187C295.499,138.753,296.576,141.459,295.456,142.994z"/>
	<path fill="#BD2331" d="M229.597,241.313c1.328,2.251,4.553,3.661,2.307,6.649c-0.857,1.139-2.635,1.617-4.11-0.108
		C226.251,246.051,226.53,244.374,229.597,241.313z"/>
	<path fill="#BD2331" d="M252.683,236.131c-2.693-2.929-0.426-5.018,0.752-7.154c0.219-0.395,1.641-0.569,2.139-0.256
		c0.636,0.398,1.227,1.382,1.256,2.136C256.937,233.68,254.929,234.978,252.683,236.131z"/>
	<path fill="#BD2331" d="M156.759,501.96c1.52,2.873,0.284,6.184-2.695,6.492c-0.672,0.069-2.347-2.182-2.167-2.458
		C153.061,504.204,153.507,501.277,156.759,501.96z"/>
	<path fill="#BD2331" d="M226.88,316.788c-1.561-1.806-3.125-3.641-0.733-5.402c0.912-0.671,3.382-0.617,4.108,0.123
		C232.015,313.303,231.011,314.766,226.88,316.788z"/>
	<path fill="#BD2331" d="M147.237,330.252c4.549-0.217,4.704-0.054,5.273,5.55C149.459,337.015,146.983,334.407,147.237,330.252z"/>
	<path fill="#BD2331" d="M180.788,444.84c1.055-1.179,1.587-2.323,2.36-2.521c1.513-0.388,3.664,2.267,3.264,4.212
		c-0.164,0.8-2.042,2.052-2.216,1.914C183.012,447.522,182.078,446.282,180.788,444.84z"/>
	<path fill="#BD2331" d="M163.271,492.696c-0.553-1.855-1.055-3.537-1.611-5.402c1.87-0.621,3.658-1.963,4.589,0.719
		C167.042,490.29,166.496,492.143,163.271,492.696z"/>
	<path fill="#BD2331" d="M192.474,278.59c-2.475-2.977-1.738-5.407,1.941-6.412C196.565,275.306,196.009,277.144,192.474,278.59z"/>
	<path fill="#BD2331" d="M173.201,448.196c-2.288-1.387-3.319-3.204-2.221-5.527c0.281-0.596,2.366-1.122,2.71-0.775
		C175.698,443.92,175.163,446.062,173.201,448.196z"/>
	<path fill="#BD2331" d="M174.583,468.369c0.562,1.343,1.604,2.722,1.507,4.017c-0.059,0.793-1.864,1.456-2.885,2.178
		c-0.365-0.19-0.731-0.381-1.097-0.57c0.255-1.838,0.51-3.674,0.764-5.511C173.442,468.444,174.012,468.406,174.583,468.369z"/>
	<path fill="#BD2331" d="M173.261,492.335c1.817-0.819,2.882-1.729,3.535-1.494c0.955,0.345,2.263,1.541,2.224,2.313
		c-0.042,0.845-1.579,2.367-2.229,2.253C175.781,495.229,174.969,493.919,173.261,492.335z"/>
	<path fill="#BD2331" d="M161.28,317.355c-1.354,1.081-2.202,1.76-3.052,2.438c-0.767-1.285-1.645-2.522-2.2-3.892
		c-0.104-0.254,1.43-1.599,1.628-1.479C158.825,315.128,159.822,316.118,161.28,317.355z"/>
	<path fill="#BD2331" d="M171.563,303.345c1.48,1.444,2.989,2.962,1.706,5.263c-0.25,0.45-1.513,0.337-2.308,0.483
		c-0.242-1.859-0.484-3.717-0.727-5.575C170.678,303.459,171.121,303.402,171.563,303.345z"/>
	<path fill="#BD2331" d="M221.208,459.619c-0.863-0.993-1.738-1.719-2.218-2.646c-0.343-0.663-0.158-1.601-0.208-2.416
		c0.824,0.042,1.787-0.174,2.451,0.177C223.161,455.753,223.159,457.944,221.208,459.619z"/>
	<path fill="#BD2331" d="M182.154,292.763c0.614,0.994,1.608,1.951,1.706,2.993c0.061,0.646-1.241,1.418-1.931,2.133
		c-0.734-0.748-1.935-1.422-2.07-2.267c-0.136-0.848,0.791-1.865,1.252-2.809C181.459,292.797,181.806,292.78,182.154,292.763z"/>
	<path fill="#BD2331" d="M209.6,457.552c-0.716-1.683-1.431-3.364-2.55-5.998c1.73,0.311,3.462,0.299,3.562,0.695
		c0.415,1.66,0.343,3.442,0.448,5.181C210.573,457.471,210.085,457.512,209.6,457.552z"/>
	<path fill="#BD2331" d="M105.853,515.763c-1.073-1.471-2.283-2.866-3.145-4.451c-0.308-0.564,0.227-1.588,0.377-2.402
		c0.642,0.375,1.588,0.594,1.871,1.151c0.852,1.68,1.445,3.488,2.14,5.248C106.681,515.46,106.267,515.611,105.853,515.763z"/>
	<path fill="#BD2331" d="M154.746,467.965c1.251,1.244,2.585,2.422,3.686,3.787c0.221,0.275-0.281,1.622-0.74,1.829
		c-0.518,0.233-1.754-0.044-1.998-0.479c-0.785-1.405-1.257-2.985-1.849-4.499C154.145,468.392,154.445,468.178,154.746,467.965z"/>
	<path fill="#BD2331" d="M222.569,242.213c0.921,1.799,1.841,3.597,2.857,5.582c-3.941,0.68-5.049-1.103-3.886-5.057
		C221.884,242.563,222.227,242.388,222.569,242.213z"/>
	<path fill="#BD2331" d="M221.698,251.754c2.612,0.409,3.322,1.936,2.987,4.028c-0.06,0.368-1.235,0.985-1.479,0.83
		C221.487,255.524,220.665,254.013,221.698,251.754z"/>
	<path fill="#BD2331" d="M84.494,415.674c-1.322,0.919-2.255,1.919-2.606,1.746c-0.997-0.494-1.756-1.468-2.608-2.253
		c0.604-0.475,1.306-1.424,1.793-1.323C82.083,414.052,82.98,414.815,84.494,415.674z"/>
	<path fill="#BD2331" d="M202.432,231.84c-0.62-1.566-1.24-3.132-1.96-4.949C203.944,227.006,204.585,228.403,202.432,231.84z"/>
	<path fill="#BD2331" d="M210.825,350.132c-0.838,0.715-1.58,1.479-1.673,1.407c-0.829-0.644-1.737-1.338-2.194-2.234
		c-0.176-0.349,0.748-1.257,1.172-1.909C208.935,348.214,209.74,349.03,210.825,350.132z"/>
	<path fill="#BD2331" d="M158.633,274.254c-1.459,0.745-2.469,1.541-2.731,1.342c-0.838-0.63-1.465-1.592-1.994-2.526
		c-0.085-0.15,0.969-1.257,1.123-1.18C156.056,272.408,156.981,273.128,158.633,274.254z"/>
	<path fill="#BD2331" d="M78.253,339.872c-1.219-0.107-2.438-0.213-3.657-0.318c0.15-0.729,0.047-1.754,0.494-2.133
		c1.796-1.529,2.424,0.248,3.371,1.066C78.392,338.948,78.322,339.409,78.253,339.872z"/>
	<path fill="#BD2331" d="M194.418,361.956c1.983,1.565,2.55,3.02,0.28,4.77C192.792,365.174,192.302,363.716,194.418,361.956z"/>
	<path fill="#BD2331" d="M189.663,414.466c-0.551,1.106-1.101,2.213-1.651,3.32c-0.601-0.313-1.204-0.625-1.806-0.938
		c0.572-1.093,1.144-2.186,1.715-3.277C188.503,413.87,189.083,414.169,189.663,414.466z"/>
	<path fill="#BD2331" d="M116.736,462.763c0.426-1.096,0.852-2.192,1.278-3.289c0.694,0.371,1.389,0.741,2.083,1.113
		c-0.642,0.981-1.285,1.963-1.927,2.945C117.692,463.276,117.214,463.02,116.736,462.763z"/>
	<path fill="#BD2331" d="M197.073,352.919c0.758-0.705,1.646-2.079,2.238-1.962c0.926,0.183,1.649,1.378,2.459,2.145
		c-0.166,0.302-0.334,0.603-0.5,0.903c-1.212-0.114-2.424-0.229-3.637-0.342C197.447,353.415,197.261,353.167,197.073,352.919z"/>
	<path fill="#BD2331" d="M235.259,208.9c0.988-0.293,1.979-0.586,3.062-0.907c0.502,1.687,0.705,3.227-1.367,3.448
		c-0.679,0.072-1.482-1.036-2.23-1.604C234.901,209.525,235.079,209.212,235.259,208.9z"/>
	<path fill="#BD2331" d="M102.417,494.329c0.429,1.052,0.858,2.104,1.288,3.156c-0.728,0.271-1.455,0.542-2.182,0.814
		c-0.264-1.145-0.529-2.289-0.793-3.434C101.292,494.687,101.854,494.509,102.417,494.329z"/>
	<path fill="#BD2331" d="M132.449,483.712c-1.434-0.786-2.461-1.348-3.487-1.91c0.417-0.535,0.75-1.417,1.268-1.542
		C131.97,479.839,132.78,480.732,132.449,483.712z"/>
	<path fill="#BD2331" d="M180.535,323.846c0.266,1.394,0.533,2.787,0.8,4.18c-0.625-0.034-1.735,0.074-1.792-0.124
		c-0.349-1.201-0.457-2.471-0.646-3.719C179.444,324.071,179.99,323.958,180.535,323.846z"/>
	<path fill="#BD2331" d="M240.729,226.221c-0.732-0.602-1.688-1.088-2.089-1.862c-0.173-0.329,0.812-1.261,1.271-1.918
		c0.641,0.9,1.279,1.801,1.919,2.701C241.462,225.502,241.095,225.862,240.729,226.221z"/>
	<path fill="#BD2331" d="M153.666,349.847c-0.353-1.863-0.613-3.24-0.916-4.842C155.758,346.342,156.033,347.47,153.666,349.847z"/>
</g>
</svg>
